<svg width="32" height="32" viewBox="0 0 32 32" fill="none" xmlns="http://www.w3.org/2000/svg">
  <path
    d="M9.03686 10.9379C8.89656 12.4344 8.79811 15.0828 9.68173 16.2101C9.68173 16.2101 9.26576 13.3008 12.9947 9.65066C14.4961 8.18124 14.8432 6.18263 14.3189 4.68367C14.0211 3.83451 13.4771 3.13302 13.0045 2.64322C12.7289 2.35524 12.9405 1.8802 13.3417 1.89743C15.7686 2.00573 19.7019 2.68014 21.3731 6.87426C22.1066 8.71535 22.1607 10.618 21.8112 12.5526C21.5897 13.7882 20.8021 16.535 22.5989 16.8722C23.8812 17.1135 24.5015 16.0945 24.7796 15.361C24.8953 15.0558 25.2965 14.9795 25.5131 15.2231C27.6791 17.6869 27.8637 20.5889 27.4157 23.0871C26.5493 27.9163 21.6586 31.4311 16.7999 31.4311C10.7303 31.4311 5.89865 27.9581 4.64582 21.6719C4.14125 19.1342 4.39723 14.1131 8.31076 10.5687C8.6012 10.3029 9.07624 10.5392 9.03686 10.9379Z"
    fill="url(#paint0_radial_1_875)" />
  <path
    d="M18.2887 21.3775C16.3257 18.8544 17.2046 15.9754 17.6862 14.8281C17.751 14.6771 17.5782 14.5348 17.4422 14.6275C16.5978 15.2012 14.8681 16.5512 14.0626 18.4511C12.9721 21.0195 13.0498 22.2768 13.6955 23.8123C14.0842 24.7375 13.6329 24.9337 13.4061 24.9682C13.1859 25.0027 12.9829 24.8561 12.8209 24.7029C12.355 24.2562 12.023 23.6887 11.8621 23.064C11.8276 22.9303 11.6526 22.8936 11.5727 23.0036C10.9681 23.8382 10.655 25.1774 10.6398 26.1241C10.5923 29.0506 13.0131 31.4228 15.9413 31.4228C19.6319 31.4228 22.3204 27.3469 20.1998 23.9395C19.5844 22.9475 19.0056 22.2984 18.2887 21.3775Z"
    fill="url(#paint1_radial_1_875)" />
  <defs>
    <radialGradient id="paint0_radial_1_875" cx="0" cy="0" r="1" gradientUnits="userSpaceOnUse"
      gradientTransform="translate(15.5978 31.5076) rotate(-179.751) scale(17.374 28.5073)">
      <stop offset="0.314" stop-color="#FF9800" />
      <stop offset="0.662" stop-color="#FF6D00" />
      <stop offset="0.972" stop-color="#F44336" />
    </radialGradient>
    <radialGradient id="paint1_radial_1_875" cx="0" cy="0" r="1" gradientUnits="userSpaceOnUse"
      gradientTransform="translate(16.1443 16.3395) rotate(90.5795) scale(15.9276 12.0029)">
      <stop offset="0.214" stop-color="#FFEA33" />
      <stop offset="0.328" stop-color="#FFF27D" />
      <stop offset="0.487" stop-color="#FFF48F" />
      <stop offset="0.672" stop-color="#FFF7AD" />
      <stop offset="0.793" stop-color="#FFF9C4" />
      <stop offset="0.822" stop-color="#FFF8BD" stop-opacity="0.804" />
      <stop offset="0.863" stop-color="#FFF6AB" stop-opacity="0.529" />
      <stop offset="0.91" stop-color="#FFF38D" stop-opacity="0.209" />
      <stop offset="0.941" stop-color="#FFF176" stop-opacity="0" />
    </radialGradient>
  </defs>
</svg>
  