<svg width="75" height="32" viewBox="0 0 75 32" fill="none" xmlns="http://www.w3.org/2000/svg">
<path d="M9.03686 10.9379C8.89656 12.4344 8.79811 15.0828 9.68173 16.2101C9.68173 16.2101 9.26576 13.3008 12.9947 9.65066C14.4961 8.18124 14.8432 6.18263 14.3189 4.68367C14.0211 3.83451 13.4771 3.13302 13.0045 2.64322C12.7289 2.35524 12.9405 1.8802 13.3417 1.89743C15.7686 2.00573 19.7019 2.68014 21.3731 6.87426C22.1066 8.71535 22.1607 10.618 21.8112 12.5526C21.5897 13.7882 20.8021 16.535 22.5989 16.8722C23.8812 17.1135 24.5015 16.0945 24.7796 15.361C24.8953 15.0558 25.2965 14.9795 25.5131 15.2231C27.6791 17.6869 27.8637 20.5889 27.4157 23.0871C26.5493 27.9163 21.6586 31.4311 16.7999 31.4311C10.7303 31.4311 5.89865 27.9581 4.64582 21.6719C4.14125 19.1342 4.39723 14.1131 8.31076 10.5687C8.6012 10.3029 9.07624 10.5392 9.03686 10.9379Z" fill="url(#paint0_linear_1719_1575)"/>
<path d="M18.2887 21.3775C16.3257 18.8544 17.2046 15.9754 17.6862 14.8281C17.751 14.6771 17.5782 14.5348 17.4422 14.6275C16.5978 15.2012 14.8681 16.5512 14.0626 18.4511C12.9721 21.0195 13.0498 22.2768 13.6955 23.8123C14.0842 24.7375 13.6329 24.9337 13.4061 24.9682C13.1859 25.0027 12.9829 24.8561 12.8209 24.7029C12.355 24.2562 12.023 23.6887 11.8621 23.064C11.8276 22.9303 11.6526 22.8936 11.5727 23.0036C10.9681 23.8382 10.655 25.1774 10.6398 26.1241C10.5923 29.0506 13.0131 31.4228 15.9413 31.4228C19.6319 31.4228 22.3204 27.3469 20.1998 23.9395C19.5844 22.9475 19.0056 22.2984 18.2887 21.3775Z" fill="url(#paint1_linear_1719_1575)"/>
<path d="M43.616 25.492H36.504V23.504L41.908 14.46H36.728V10.092H48.6V11.688L42.972 21.124H44.344C46.248 21.124 47.424 21.124 48.74 20.956V25.24C47.508 25.548 45.24 25.492 43.616 25.492ZM57.9977 20.592C60.0137 20.564 61.1057 19.248 61.1057 17.512C61.1057 15.076 59.6777 13.956 57.9977 13.872C56.6257 13.788 55.0017 14.684 54.8897 17.26C54.7777 19.556 56.2617 20.62 57.9977 20.592ZM66.0897 22.832C66.0897 25.716 65.6977 27.648 63.4577 29.244C61.7217 30.42 59.2297 30.672 56.7377 30.56C55.0297 30.476 52.8177 29.972 50.7457 28.768L52.7617 24.96C54.6937 26.052 56.5137 26.64 58.6697 26.416C60.5457 26.192 61.1897 25.1 61.1897 24.092V23.42C60.4617 24.204 58.8657 24.736 57.2417 24.736C53.9377 24.736 49.9617 22.524 50.1297 17.484C50.3257 11.94 53.6577 9.532 57.5217 9.728C59.1457 9.784 60.3777 10.372 61.1897 11.184V10.092H66.0897V22.832ZM68.3466 4.296H73.2186V25.492H68.3466V4.296Z" fill="#FBCCBA"/>
<defs>
<linearGradient id="paint0_linear_1719_1575" x1="16.0337" y1="1.89697" x2="16.0337" y2="31.4311" gradientUnits="userSpaceOnUse">
<stop stop-color="#FBCCBA"/>
<stop offset="1" stop-color="#FF9065"/>
</linearGradient>
<linearGradient id="paint1_linear_1719_1575" x1="15.7938" y1="14.598" x2="15.7938" y2="31.4228" gradientUnits="userSpaceOnUse">
<stop stop-color="#F3C9B9"/>
<stop offset="1" stop-color="#FFEFE9"/>
</linearGradient>
</defs>
</svg>
