<svg width="80" height="27" viewBox="0 0 80 27" fill="none" xmlns="http://www.w3.org/2000/svg">
  <path
    d="M7.616 21.492H0.504V19.504L5.908 10.46H0.728V6.092H12.6V7.688L6.972 17.124H8.344C10.248 17.124 11.424 17.124 12.74 16.956V21.24C11.508 21.548 9.24 21.492 7.616 21.492ZM14.3817 6.092H19.2257V21.492H14.3817V6.092ZM19.2257 4.468H14.3817V0.715998H19.2257V4.468ZM29.1071 16.592C31.1231 16.564 32.2151 15.248 32.2151 13.512C32.2151 11.076 30.7871 9.956 29.1071 9.872C27.7351 9.788 26.1111 10.684 25.9991 13.26C25.8871 15.556 27.3711 16.62 29.1071 16.592ZM37.1991 18.832C37.1991 21.716 36.8071 23.648 34.5671 25.244C32.8311 26.42 30.3391 26.672 27.8471 26.56C26.1391 26.476 23.9271 25.972 21.8551 24.768L23.8711 20.96C25.8031 22.052 27.6231 22.64 29.7791 22.416C31.6551 22.192 32.2991 21.1 32.2991 20.092V19.42C31.5711 20.204 29.9751 20.736 28.3511 20.736C25.0471 20.736 21.0711 18.524 21.2391 13.484C21.4351 7.94 24.7671 5.532 28.6311 5.728C30.2551 5.784 31.4871 6.372 32.2991 7.184V6.092H37.1991V18.832ZM47.0719 16.592C49.0879 16.564 50.1799 15.248 50.1799 13.512C50.1799 11.076 48.7519 9.956 47.0719 9.872C45.6999 9.788 44.0759 10.684 43.9639 13.26C43.8519 15.556 45.3359 16.62 47.0719 16.592ZM55.1639 18.832C55.1639 21.716 54.7719 23.648 52.5319 25.244C50.7959 26.42 48.3039 26.672 45.8119 26.56C44.1039 26.476 41.8919 25.972 39.8199 24.768L41.8359 20.96C43.7679 22.052 45.5879 22.64 47.7439 22.416C49.6199 22.192 50.2639 21.1 50.2639 20.092V19.42C49.5359 20.204 47.9399 20.736 46.3159 20.736C43.0119 20.736 39.0359 18.524 39.2039 13.484C39.3999 7.94 42.7319 5.532 46.5959 5.728C48.2199 5.784 49.4519 6.372 50.2639 7.184V6.092H55.1639V18.832ZM57.4208 0.295999H62.2928V21.492H57.4208V0.295999ZM64.2215 13.876C64.2215 8.724 67.3575 5.532 71.8935 5.532C76.5415 5.532 79.2295 8.948 79.2295 13.932L79.1175 15.472H69.0095C69.1215 16.9 70.4935 17.684 72.0895 17.684C73.5455 17.684 74.5535 17.096 75.4495 16.004L78.6135 18.748C76.9615 21.016 74.7215 22.052 71.8935 22.052C67.3855 22.052 64.1375 18.916 64.2215 13.876ZM74.4975 11.72C74.3015 10.432 73.1815 9.816 71.9215 9.816C70.5215 9.816 69.4575 10.516 69.2895 11.72H74.4975Z"
    fill="#252525" />
</svg>
  