<svg width="38" height="27" viewBox="0 0 38 27" fill="none" xmlns="http://www.w3.org/2000/svg">
  <path
    d="M7.616 21.492H0.504V19.504L5.908 10.46H0.728V6.092H12.6V7.688L6.972 17.124H8.344C10.248 17.124 11.424 17.124 12.74 16.956V21.24C11.508 21.548 9.24 21.492 7.616 21.492ZM21.9977 16.592C24.0137 16.564 25.1057 15.248 25.1057 13.512C25.1057 11.076 23.6777 9.956 21.9977 9.872C20.6257 9.788 19.0017 10.684 18.8897 13.26C18.7777 15.556 20.2617 16.62 21.9977 16.592ZM30.0897 18.832C30.0897 21.716 29.6977 23.648 27.4577 25.244C25.7217 26.42 23.2297 26.672 20.7377 26.56C19.0297 26.476 16.8177 25.972 14.7457 24.768L16.7617 20.96C18.6937 22.052 20.5137 22.64 22.6697 22.416C24.5457 22.192 25.1897 21.1 25.1897 20.092V19.42C24.4617 20.204 22.8657 20.736 21.2417 20.736C17.9377 20.736 13.9617 18.524 14.1297 13.484C14.3257 7.94 17.6577 5.532 21.5217 5.728C23.1457 5.784 24.3777 6.372 25.1897 7.184V6.092H30.0897V18.832ZM32.3466 0.295999H37.2186V21.492H32.3466V0.295999Z"
    fill="#252525" />
</svg>
  