<?xml version="1.0" encoding="utf-8"?>
<!-- Generator: Adobe Illustrator 27.2.0, SVG Export Plug-In . SVG Version: 6.00 Build 0)  -->
<svg version="1.1" id="Ebene_1" xmlns="http://www.w3.org/2000/svg" xmlns:xlink="http://www.w3.org/1999/xlink" x="0px" y="0px"
	 viewBox="0 0 1597.6 1080" style="enable-background:new 0 0 1597.6 1080;" xml:space="preserve">
<style type="text/css">
	.st0{fill:#0F2B46;}
	.st1{fill-rule:evenodd;clip-rule:evenodd;fill:#0F2B46;}
</style>
<g>
	<path class="st0" d="M812.9,438.5h52.7c12.8,0,24.3,2.5,34.3,7.5c10,4.9,17.7,11.9,23.2,21.1c5.5,9,8.3,19.5,8.3,31.4
		s-2.8,22.4-8.3,31.5c-5.5,9-13.2,16-23.2,21.1c-10,4.9-21.4,7.4-34.3,7.4h-52.7V438.5L812.9,438.5z M864.6,539.6
		c8.8,0,16.6-1.7,23.2-5c6.8-3.4,11.9-8.2,15.5-14.4c3.7-6.3,5.5-13.5,5.5-21.8s-1.8-15.4-5.5-21.6c-3.6-6.3-8.7-11.1-15.5-14.4
		c-6.7-3.4-14.4-5.1-23.2-5.1h-29.3v82.2H864.6z"/>
	<path class="st0" d="M1039.5,513.2c0,1.5-0.1,3.6-0.3,6.3H967c1.3,6.7,4.5,12.1,9.8,16.1c5.4,3.9,12,5.8,20,5.8
		c10.1,0,18.4-3.3,25-9.9l11.5,13.2c-4.1,4.9-9.4,8.6-15.7,11.1c-6.3,2.5-13.4,3.8-21.3,3.8c-10.1,0-19-2-26.7-6
		s-13.7-9.5-17.9-16.6c-4.1-7.2-6.2-15.3-6.2-24.3s2-16.9,6-24c4.1-7.2,9.8-12.8,17-16.8s15.4-6,24.5-6s16.9,2,23.9,6
		c7.1,3.9,12.6,9.4,16.5,16.6C1037.5,495.7,1039.5,503.9,1039.5,513.2L1039.5,513.2z M993,483.1c-6.9,0-12.7,2.1-17.6,6.2
		c-4.7,4-7.6,9.4-8.6,16.1h52.2c-0.9-6.6-3.7-12-8.4-16.1C1005.9,485.2,1000,483.1,993,483.1L993,483.1z"/>
	<path class="st0" d="M1146.6,513.2c0,1.5-0.1,3.6-0.3,6.3h-72.1c1.3,6.7,4.5,12.1,9.8,16.1c5.4,3.9,12.1,5.8,20,5.8
		c10.1,0,18.4-3.3,25-9.9l11.5,13.2c-4.1,4.9-9.4,8.6-15.7,11.1c-6.3,2.5-13.4,3.8-21.3,3.8c-10.1,0-19-2-26.7-6
		c-7.7-4-13.7-9.5-17.9-16.6c-4.1-7.2-6.2-15.3-6.2-24.3s2-16.9,6-24c4.1-7.2,9.8-12.8,17-16.8c7.2-4,15.4-6,24.4-6s16.9,2,23.9,6
		c7.1,3.9,12.6,9.4,16.5,16.6C1144.6,495.7,1146.6,503.9,1146.6,513.2L1146.6,513.2z M1100.1,483.1c-6.9,0-12.7,2.1-17.6,6.2
		c-4.7,4-7.6,9.4-8.6,16.1h52.2c-0.9-6.6-3.7-12-8.4-16.1C1112.9,485.2,1107.1,483.1,1100.1,483.1L1100.1,483.1z"/>
	<path class="st0" d="M1218.2,466c8.9,0,16.9,1.9,23.9,5.8c7.1,3.9,12.7,9.4,16.7,16.5c4,7.1,6,15.2,6,24.5s-2,17.5-6,24.7
		c-4,7.1-9.6,12.6-16.7,16.5c-7,3.9-15,5.8-23.9,5.8c-12.4,0-22.2-4.1-29.4-12.3v44.4h-21.5V467h20.5v12c3.6-4.3,7.9-7.6,13.1-9.8
		C1206.1,467,1211.9,465.9,1218.2,466L1218.2,466z M1215.8,541.3c7.9,0,14.4-2.6,19.4-7.9c5.2-5.2,7.8-12.2,7.8-20.7
		s-2.6-15.5-7.8-20.7c-5.1-5.2-11.5-7.9-19.4-7.9c-5.2,0-9.8,1.2-13.9,3.6c-4.1,2.3-7.4,5.6-9.8,9.9s-3.6,9.4-3.6,15.1
		s1.2,10.7,3.6,15.1s5.7,7.7,9.8,10.1C1206,540.2,1210.6,541.4,1215.8,541.3L1215.8,541.3z"/>
	<path class="st0" d="M1287.3,438.5h22.4v101.1h63v18.8h-85.4V438.5L1287.3,438.5z"/>
	<path class="st1" d="M694.1,361L485.6,240.4c-10.8-6.3-24-6.3-34.8,0l-208.5,121c-10.8,6.3-17.4,17.8-17.4,30V633
		c0,12.5,6.6,24.1,17.4,30.3L450.8,784c0.5,0.3,1.1,0.6,1.6,0.9l102.7,59.5l-0.3-52.3l0.2-29l0.1,0.5v-9.8c0-5.8,3-11,7.5-14.2
		l6.7-3.8l3.2-1.8l-0.2,0l121.8-70.5c10.8-6.3,17.4-17.8,17.4-30.3V391.3C711.5,378.8,704.9,367.3,694.1,361L694.1,361z
		 M444.2,606.7c3.1,12.2-0.3,25.7-10.1,35.1c-13.9,13.6-36.1,13.6-50,0c-15-14.3-15-38,0-52.3c13.9-13.6,36.1-13.6,50,0
		c0.6,0.6,1.2,1.2,1.8,1.9l84.4-48.6l17.4,9.8L444.2,606.7L444.2,606.7z M590.6,545.5c-13.9,13.6-36.2,13.6-50,0
		c-10.5-10-13.6-24.7-9.4-37.5l-0.3,0.2l-95.2-55.1c-0.5,0.5-0.9,1-1.4,1.4c-13.9,13.6-36.1,13.6-50,0c-15-14.3-15-38,0-52.3
		c13.9-13.6,36.1-13.6,50,0c10,9.6,13.3,23.3,9.9,35.7l95.9,55.8c0.2-0.2,0.3-0.3,0.5-0.5c13.9-13.6,36.2-13.6,50,0
		C605.5,507.5,605.5,531.2,590.6,545.5L590.6,545.5z"/>
</g>
</svg>
