<svg width="121" height="169" viewBox="0 0 121 169" fill="none" xmlns="http://www.w3.org/2000/svg">
<g style="mix-blend-mode:luminosity" opacity="0.5">
<path d="M99.9655 92.458C99.9655 114.126 82.2963 131.692 60.4997 131.692C38.703 131.692 21.0338 114.126 21.0338 92.458C21.0338 70.7896 60.4997 34.6445 60.4997 34.6445C60.4997 34.6445 72.4963 40.5681 78.497 53.3867C82.7331 62.4359 80.5655 75.4162 82.7331 78.236C84.4604 80.4829 88.5401 66.0666 90.1027 68.3835C95.7643 76.7774 99.9655 85.3882 99.9655 92.458Z" fill="#FF3069"/>
<path d="M35.9612 149.94L0.425079 141.687L2.9646 130.879L60.4993 144.241L35.9612 149.94Z" fill="#AA947D"/>
<path d="M85.0371 149.939L120.575 158.193L118.035 169L60.499 155.638L85.0371 149.939Z" fill="#836F5A"/>
<path d="M118.035 130.879L112.849 132.084L99.6734 124.521L95.5554 131.612L101.122 134.807L0.425079 158.193L2.9646 169L120.575 141.687L118.035 130.879Z" fill="#AA947D"/>
<path d="M106.052 43.8485C106.052 49.5764 108.925 54.6342 113.313 57.6854C117.702 54.6342 120.575 49.5764 120.575 43.8485C120.575 38.1207 117.702 33.0629 113.313 30.0117C108.925 33.0626 106.052 38.1207 106.052 43.8485Z" fill="#FF3069"/>
<path opacity="0.28" d="M114.017 30.5312C116.254 33.3888 117.589 36.978 117.589 40.8799C117.589 46.6077 114.716 51.6655 110.328 54.7167C110.088 54.5498 109.855 54.3748 109.624 54.1962C110.671 55.5337 111.914 56.7119 113.313 57.6845C117.702 54.6333 120.575 49.5755 120.575 43.8476C120.575 38.4329 118.005 33.6192 114.017 30.5312Z" fill="#AB3018"/>
<path d="M0.425079 46.497C0.425079 52.2248 3.29784 57.2826 7.68659 60.3338C12.075 57.2826 14.9481 52.2248 14.9481 46.497C14.9481 40.7691 12.0753 35.7114 7.68659 32.6602C3.29784 35.711 0.425079 40.7691 0.425079 46.497Z" fill="#FF3069"/>
<path d="M40.1465 13.8368C40.1465 19.5647 43.0193 24.6224 47.408 27.6736C51.7964 24.6224 54.6695 19.5647 54.6695 13.8368C54.6695 8.10896 51.7968 3.0512 47.408 0C43.0193 3.0512 40.1465 8.10896 40.1465 13.8368Z" fill="#FF3069"/>
<path d="M78.497 99.2862C78.497 109.167 70.4395 117.178 60.4997 117.178C50.5598 117.178 42.5023 109.168 42.5023 99.2862C42.5023 89.4048 60.4997 72.9219 60.4997 72.9219C60.4997 72.9219 65.9703 75.6233 68.707 81.4689C70.6388 85.5956 69.6504 91.515 70.6388 92.8007C71.4265 93.8254 73.2871 87.251 73.9995 88.3076C76.5811 92.1354 78.497 96.0623 78.497 99.2862Z" fill="#FFB057"/>
<g opacity="0.36">
<path d="M76.4126 66.4967C77.3657 67.7363 79.035 63.9031 80.6024 60.6068C80.1753 58.1471 79.5261 55.7172 78.4973 53.5191C77.1226 50.5822 75.4319 48.012 73.6441 45.7871C75.8722 54.2462 74.5592 64.0854 76.4126 66.4967Z" fill="#AB3018"/>
<path d="M91.3345 70.3828C92.7897 74.0334 93.6447 77.5323 93.6447 80.7177C93.6447 102.386 75.9754 119.951 54.1788 119.951C41.4764 119.951 30.1773 113.984 22.9586 104.717C28.0981 120.449 42.9616 131.824 60.5 131.824C82.2963 131.824 99.9659 114.258 99.9659 92.5898C99.9655 86.0436 96.3624 78.1759 91.3345 70.3828Z" fill="#AB3018"/>
</g>
<path opacity="0.28" d="M8.39001 33.1816C10.6274 36.0392 11.9624 39.6284 11.9624 43.5302C11.9624 49.2581 9.08964 54.3159 4.70089 57.3671C4.46124 57.2002 4.2278 57.0251 3.99747 56.8466C5.04449 58.1841 6.28732 59.3623 7.68658 60.3348C12.075 57.2836 14.9481 52.2259 14.9481 46.498C14.9481 41.0832 12.3782 36.2696 8.39001 33.1816Z" fill="#AB3018"/>
<path opacity="0.28" d="M48.1114 0.519531C50.3488 3.37711 51.6838 6.96625 51.6838 10.8681C51.6838 16.596 48.8111 21.6538 44.4223 24.705C44.1827 24.5381 43.9492 24.363 43.7189 24.1845C44.7659 25.522 46.0088 26.7002 47.408 27.6727C51.7964 24.6215 54.6695 19.5638 54.6695 13.8359C54.6692 8.42114 52.0996 3.60746 48.1114 0.519531Z" fill="#AB3018"/>
</g>
</svg>
