<svg width="50" height="50" viewBox="0 0 50 50" fill="none" xmlns="http://www.w3.org/2000/svg">
  <path fill-rule="evenodd" clip-rule="evenodd" d="M28.6458 43.75C28.6458 44.6129 27.9463 45.3125 27.0833 45.3125H7.5C5.9467 45.3125 4.6875 44.0533 4.6875 42.5V7.5C4.6875 5.9467 5.9467 4.6875 7.5 4.6875H42.5C44.0533 4.6875 45.3125 5.9467 45.3125 7.5V27.0833C45.3125 27.9463 44.6129 28.6458 43.75 28.6458C42.8871 28.6458 42.1875 27.9463 42.1875 27.0833V7.8125H7.8125V42.1875H27.0833C27.9463 42.1875 28.6458 42.8871 28.6458 43.75Z" fill="#6E6E73"/>
  <path fill-rule="evenodd" clip-rule="evenodd" d="M20.2179 25.6468C20.6218 25.4737 21.0799 25.4787 21.4799 25.6606L32.9383 30.8689C33.7239 31.226 34.0712 32.1523 33.7141 32.9379C33.3571 33.7235 32.4307 34.0709 31.6451 33.7138L20.8148 28.7909L6.86553 34.7692C6.07236 35.1091 5.1538 34.7417 4.81387 33.9485C4.47394 33.1553 4.84137 32.2368 5.63454 31.8968L20.2179 25.6468Z" fill="#6E6E73"/>
  <path fill-rule="evenodd" clip-rule="evenodd" d="M33.3333 14.0625C34.7716 14.0625 35.9375 15.2284 35.9375 16.6667C35.9375 18.1049 34.7716 19.2708 33.3333 19.2708C31.8951 19.2708 30.7292 18.1049 30.7292 16.6667C30.7292 15.2284 31.8951 14.0625 33.3333 14.0625ZM39.0625 16.6667C39.0625 13.5025 36.4975 10.9375 33.3333 10.9375C30.1692 10.9375 27.6042 13.5025 27.6042 16.6667C27.6042 19.8308 30.1692 22.3958 33.3333 22.3958C36.4975 22.3958 39.0625 19.8308 39.0625 16.6667Z" fill="#6E6E73"/>
  <path fill-rule="evenodd" clip-rule="evenodd" d="M39.5834 31.7705C40.4463 31.7705 41.1459 32.4701 41.1459 33.333V38.0205H45.8334C46.6963 38.0205 47.3959 38.7201 47.3959 39.583C47.3959 40.446 46.6963 41.1455 45.8334 41.1455H41.1459V45.833C41.1459 46.696 40.4463 47.3955 39.5834 47.3955C38.7204 47.3955 38.0209 46.696 38.0209 45.833V41.1455H33.3334C32.4704 41.1455 31.7709 40.446 31.7709 39.583C31.7709 38.7201 32.4704 38.0205 33.3334 38.0205H38.0209V33.333C38.0209 32.4701 38.7204 31.7705 39.5834 31.7705Z" fill="#6E6E73"/>
  </svg>
  