<svg width="41" height="40" viewBox="0 0 41 40" fill="none" xmlns="http://www.w3.org/2000/svg">
  <path fill-rule="evenodd" clip-rule="evenodd"
    d="M20.5 2.08301C10.6049 2.08301 2.58333 10.1046 2.58333 19.9997C2.58333 29.8948 10.6049 37.9163 20.5 37.9163C30.3951 37.9163 38.4167 29.8948 38.4167 19.9997C38.4167 10.1046 30.3951 2.08301 20.5 2.08301ZM21.75 13.333C21.75 12.6427 21.1903 12.083 20.5 12.083C19.8096 12.083 19.25 12.6427 19.25 13.333V18.7497H13.8333C13.143 18.7497 12.5833 19.3093 12.5833 19.9997C12.5833 20.69 13.143 21.2497 13.8333 21.2497H19.25V26.6663C19.25 27.3567 19.8096 27.9163 20.5 27.9163C21.1903 27.9163 21.75 27.3567 21.75 26.6663V21.2497H27.1667C27.857 21.2497 28.4167 20.69 28.4167 19.9997C28.4167 19.3093 27.857 18.7497 27.1667 18.7497H21.75V13.333Z"
    fill="black" />
</svg>
  