<svg width="20" height="20" viewBox="0 0 20 20" fill="none" xmlns="http://www.w3.org/2000/svg">
  <path fill-rule="evenodd" clip-rule="evenodd"
    d="M6.00855 2.80163C7.05987 1.68022 8.49471 1.04199 10 1.04199C11.5054 1.04199 12.9402 1.68022 13.9915 2.80163C15.0416 3.92167 15.625 5.43263 15.625 7.00033C15.625 10.0258 16.2322 11.9261 16.8065 13.0491C17.0943 13.6118 17.3765 13.9848 17.5767 14.2103C17.677 14.3232 17.7572 14.3996 17.8078 14.4447C17.8332 14.4672 17.8512 14.4819 17.8606 14.4894L17.8679 14.495C18.0855 14.6534 18.1774 14.9336 18.0954 15.1904C18.0127 15.4495 17.772 15.6253 17.5 15.6253H2.50004C2.22811 15.6253 1.98738 15.4495 1.90466 15.1904C1.82265 14.9336 1.91463 14.6534 2.13219 14.495L2.13946 14.4894C2.14891 14.4819 2.1669 14.4672 2.19224 14.4447C2.2429 14.3996 2.32308 14.3232 2.42337 14.2103C2.62362 13.9848 2.90584 13.6118 3.19358 13.0491C3.76785 11.9261 4.37504 10.0258 4.37504 7.00033C4.37504 5.43263 4.95851 3.92167 6.00855 2.80163ZM16.1343 14.3753C15.9909 14.159 15.8417 13.9078 15.6936 13.6182C15.0178 12.2968 14.375 10.1971 14.375 7.00033C14.375 5.73905 13.9049 4.5369 13.0796 3.65655C12.2556 2.77757 11.1469 2.29199 10 2.29199C8.85322 2.29199 7.74452 2.77757 6.92047 3.65655C6.09515 4.5369 5.62504 5.73905 5.62504 7.00033C5.62504 10.1971 4.98224 12.2968 4.30651 13.6182C4.15841 13.9078 4.00924 14.159 3.86576 14.3753H16.1343ZM2.13706 14.4915C2.13705 14.4915 2.13705 14.4915 2.13705 14.4915L2.13661 14.4919L2.13631 14.4921L2.13623 14.4921C2.13635 14.492 2.13648 14.4919 2.13661 14.4919C2.13676 14.4918 2.13691 14.4916 2.13706 14.4915Z"
    fill="#6E6E73" />
  <path fill-rule="evenodd" clip-rule="evenodd"
    d="M8.24472 16.9595C8.5433 16.7863 8.92576 16.8879 9.09896 17.1865C9.19052 17.3443 9.32195 17.4754 9.48009 17.5665C9.63822 17.6575 9.81751 17.7055 10 17.7055C10.1825 17.7055 10.3618 17.6575 10.5199 17.5665C10.678 17.4754 10.8095 17.3443 10.901 17.1865C11.0742 16.8879 11.4567 16.7863 11.7553 16.9595C12.0538 17.1327 12.1555 17.5151 11.9823 17.8137C11.7808 18.161 11.4917 18.4492 11.1438 18.6496C10.7959 18.85 10.4015 18.9555 10 18.9555C9.59852 18.9555 9.20409 18.85 8.8562 18.6496C8.5083 18.4492 8.21915 18.161 8.01771 17.8137C7.84451 17.5151 7.94614 17.1327 8.24472 16.9595Z"
    fill="#6E6E73" />
</svg>
  