<svg width="41" height="40" viewBox="0 0 41 40" fill="none" xmlns="http://www.w3.org/2000/svg">
  <path fill-rule="evenodd" clip-rule="evenodd"
    d="M8.83333 7.08301C8.14297 7.08301 7.58333 7.64265 7.58333 8.33301L7.58333 11.6663C7.58333 12.3567 8.14297 12.9163 8.83333 12.9163C9.52368 12.9163 10.0833 12.3567 10.0833 11.6663V9.58301L30.9167 9.58301V11.6663C30.9167 12.3567 31.4763 12.9163 32.1667 12.9163C32.857 12.9163 33.4167 12.3567 33.4167 11.6663V8.33301C33.4167 7.64265 32.857 7.08301 32.1667 7.08301L8.83333 7.08301Z"
    fill="#252525" />
  <path fill-rule="evenodd" clip-rule="evenodd"
    d="M15.9167 31.6663C15.9167 32.3567 16.4763 32.9163 17.1667 32.9163H23.8333C24.5237 32.9163 25.0833 32.3567 25.0833 31.6663C25.0833 30.976 24.5237 30.4163 23.8333 30.4163H21.75L21.75 8.33301C21.75 7.64265 21.1904 7.08301 20.5 7.08301C19.8096 7.08301 19.25 7.64265 19.25 8.33301L19.25 30.4163H17.1667C16.4763 30.4163 15.9167 30.976 15.9167 31.6663Z"
    fill="#252525" />
</svg>
  