<svg width="31" height="30" viewBox="0 0 31 30" fill="none" xmlns="http://www.w3.org/2000/svg">
  <path fill-rule="evenodd" clip-rule="evenodd"
    d="M18.7708 18.4375V25.3125H25.6458V18.4375H18.7708ZM16.8958 18.25C16.8958 17.318 17.6514 16.5625 18.5833 16.5625H25.8333C26.7653 16.5625 27.5208 17.318 27.5208 18.25V25.5C27.5208 26.432 26.7653 27.1875 25.8333 27.1875H18.5833C17.6514 27.1875 16.8958 26.432 16.8958 25.5V18.25Z"
    fill="black" />
  <path fill-rule="evenodd" clip-rule="evenodd"
    d="M5.02084 18.4375V25.3125H11.8958V18.4375H5.02084ZM3.14584 18.25C3.14584 17.318 3.90136 16.5625 4.83334 16.5625H12.0833C13.0153 16.5625 13.7708 17.318 13.7708 18.25V25.5C13.7708 26.432 13.0153 27.1875 12.0833 27.1875H4.83334C3.90136 27.1875 3.14584 26.432 3.14584 25.5V18.25Z"
    fill="black" />
  <path fill-rule="evenodd" clip-rule="evenodd"
    d="M18.7708 4.6875V11.5625H25.6458V4.6875H18.7708ZM16.8958 4.5C16.8958 3.56802 17.6514 2.8125 18.5833 2.8125H25.8333C26.7653 2.8125 27.5208 3.56802 27.5208 4.5V11.75C27.5208 12.682 26.7653 13.4375 25.8333 13.4375H18.5833C17.6514 13.4375 16.8958 12.682 16.8958 11.75V4.5Z"
    fill="black" />
  <path fill-rule="evenodd" clip-rule="evenodd"
    d="M5.02084 4.6875V11.5625H11.8958V4.6875H5.02084ZM3.14584 4.5C3.14584 3.56802 3.90136 2.8125 4.83334 2.8125H12.0833C13.0153 2.8125 13.7708 3.56802 13.7708 4.5V11.75C13.7708 12.682 13.0153 13.4375 12.0833 13.4375H4.83334C3.90136 13.4375 3.14584 12.682 3.14584 11.75V4.5Z"
    fill="black" />
</svg>
  