<svg width="8" height="8" viewBox="0 0 8 8" fill="none" xmlns="http://www.w3.org/2000/svg">
  <path fill-rule="evenodd" clip-rule="evenodd"
    d="M0.640984 0.641243C0.933877 0.34835 1.40875 0.34835 1.70164 0.641243L3.99974 2.93934L6.29784 0.641243C6.59073 0.34835 7.0656 0.34835 7.3585 0.641243C7.65139 0.934136 7.65139 1.40901 7.3585 1.7019L5.0604 4L7.3585 6.2981C7.65139 6.59099 7.65139 7.06586 7.3585 7.35876C7.0656 7.65165 6.59073 7.65165 6.29784 7.35876L3.99974 5.06066L1.70164 7.35876C1.40875 7.65165 0.933877 7.65165 0.640984 7.35876C0.34809 7.06586 0.34809 6.59099 0.640984 6.2981L2.93908 4L0.640984 1.7019C0.34809 1.40901 0.34809 0.934136 0.640984 0.641243Z"
    fill="black" />
</svg>
  