<svg width="20" height="20" viewBox="0 0 20 20" fill="none" xmlns="http://www.w3.org/2000/svg">
  <path fill-rule="evenodd" clip-rule="evenodd"
    d="M16.7749 6.88455C17.1149 6.94432 17.342 7.26837 17.2822 7.60834L15.6198 17.0636C15.6197 17.0636 15.6197 17.0636 15.6197 17.0636C15.4271 18.1593 14.4753 18.9584 13.3628 18.9584H6.63731C5.52474 18.9584 4.57292 18.1593 4.38026 17.0636L2.7178 7.60833C2.65802 7.26837 2.88516 6.94432 3.22513 6.88455C3.56509 6.82477 3.88914 7.05191 3.94891 7.39187L5.61138 16.8471C5.69896 17.3452 6.13162 17.7084 6.63731 17.7084H13.3628C13.8684 17.7084 14.3011 17.3452 14.3886 16.8471L14.3886 16.8471L16.0511 7.39187C16.1109 7.05191 16.435 6.82477 16.7749 6.88455Z"
    fill="#6E6E73" />
  <path fill-rule="evenodd" clip-rule="evenodd"
    d="M8.85417 2.29199C8.27887 2.29199 7.8125 2.75836 7.8125 3.33366V4.37533H12.1875V3.33366C12.1875 2.75836 11.7211 2.29199 11.1458 2.29199H8.85417ZM6.5625 4.37533V3.33366C6.5625 2.06801 7.58851 1.04199 8.85417 1.04199H11.1458C12.4115 1.04199 13.4375 2.06801 13.4375 3.33366V4.37533H17.5C17.8452 4.37533 18.125 4.65515 18.125 5.00033C18.125 5.3455 17.8452 5.62533 17.5 5.62533H2.5C2.15482 5.62533 1.875 5.3455 1.875 5.00033C1.875 4.65515 2.15482 4.37533 2.5 4.37533H6.5625Z"
    fill="#6E6E73" />
</svg>
  