<svg width="24" height="24" viewBox="0 0 24 24" fill="none" xmlns="http://www.w3.org/2000/svg">
  <path fill-rule="evenodd" clip-rule="evenodd"
    d="M20.616 8.94454C21.6899 7.8706 21.6899 6.1294 20.616 5.05546L19.2018 3.64124C18.1278 2.5673 16.3866 2.5673 15.3127 3.64124L4.21705 14.7369C3.76045 15.1935 3.47908 15.7962 3.42226 16.4394L3.18018 19.1799C3.08433 20.2649 3.99236 21.1729 5.07738 21.0771L7.8178 20.835C8.46103 20.7782 9.06375 20.4968 9.52035 20.0402L20.616 8.94454ZM19.5553 6.11612C20.0435 6.60427 20.0435 7.39573 19.5553 7.88388L18.6057 8.83354L15.4237 5.65156L16.3734 4.7019C16.8615 4.21375 17.653 4.21375 18.1411 4.7019L19.5553 6.11612ZM14.363 6.71222L17.545 9.8942L8.45969 18.9795C8.25214 19.1871 7.97818 19.315 7.6858 19.3408L4.94539 19.5829C4.79038 19.5966 4.66067 19.4669 4.67436 19.3119L4.91644 16.5714C4.94227 16.2791 5.07016 16.0051 5.27771 15.7976L14.363 6.71222Z"
    fill="#6E6E73" />
</svg>
  