<svg width="37" height="36" viewBox="0 0 37 36" fill="none" xmlns="http://www.w3.org/2000/svg">
  <g clip-path="url(#clip0_36_3649)">
    <path fill-rule="evenodd" clip-rule="evenodd"
      d="M18.4995 14.624C16.6355 14.624 15.1245 16.1351 15.1245 17.999C15.1245 19.863 16.6355 21.374 18.4995 21.374C20.3635 21.374 21.8745 19.863 21.8745 17.999C21.8745 16.1351 20.3635 14.624 18.4995 14.624ZM12.8745 17.999C12.8745 14.8924 15.3929 12.374 18.4995 12.374C21.6061 12.374 24.1245 14.8924 24.1245 17.999C24.1245 21.1056 21.6061 23.624 18.4995 23.624C15.3929 23.624 12.8745 21.1056 12.8745 17.999Z"
      fill="#252525" />
    <path fill-rule="evenodd" clip-rule="evenodd"
      d="M19.2955 0.704505L18.5 1.5L17.7045 0.704505C18.1438 0.265165 18.8562 0.265165 19.2955 0.704505ZM18.9938 12.9969L18.9949 12.9946L19.0042 12.9756C19.013 12.9574 19.0268 12.9285 19.045 12.8895C19.0814 12.8115 19.1351 12.6934 19.2003 12.5412C19.3311 12.2362 19.5068 11.7969 19.6827 11.2692C20.039 10.2004 20.375 8.82984 20.375 7.5C20.375 6.33815 19.7766 5.06801 19.0639 3.99904C18.8713 3.71013 18.6782 3.44747 18.5 3.21911C18.3218 3.44747 18.1287 3.71013 17.9361 3.99904C17.2234 5.06801 16.625 6.33815 16.625 7.5C16.625 8.82984 16.961 10.2004 17.3173 11.2692C17.4932 11.7969 17.6689 12.2362 17.7997 12.5412C17.8649 12.6934 17.9186 12.8115 17.955 12.8895C17.9732 12.9285 17.987 12.9574 17.9958 12.9756L18.0051 12.9946L18.0062 12.9969C18.0062 12.9968 18.0063 12.997 18.0062 12.9969C18.0061 12.9967 18.0062 12.9969 17 13.5L15.9938 14.0031C16.2716 14.5588 16.9474 14.7841 17.5031 14.5062C18.0587 14.2284 18.2838 13.5525 18.0062 12.9969M17 13.5C15.9938 14.0031 15.9939 14.0033 15.9938 14.0031L15.9927 14.001L15.9911 13.9978L15.9863 13.988L15.9705 13.9556C15.9573 13.9283 15.9389 13.8899 15.9161 13.841C15.8705 13.7432 15.807 13.6034 15.7316 13.4275C15.5811 13.0763 15.3818 12.5781 15.1827 11.9808C14.789 10.7996 14.375 9.17016 14.375 7.5C14.375 5.66185 15.2766 3.93199 16.0639 2.75096C16.4698 2.14215 16.874 1.63703 17.1771 1.28348C17.3291 1.10613 17.457 0.965374 17.5487 0.867158C17.5945 0.818012 17.6314 0.779405 17.6579 0.752075L17.6896 0.719592L17.6992 0.709841L17.7024 0.706617L17.7045 0.704505C17.7047 0.704287 17.7045 0.704505 18.5 1.5C19.2955 0.704505 19.2953 0.704287 19.2955 0.704505L19.2976 0.706617L19.3008 0.709841L19.3104 0.719592L19.3421 0.752075C19.3686 0.779405 19.4055 0.818012 19.4513 0.867158C19.543 0.965374 19.6709 1.10613 19.8229 1.28348C20.126 1.63703 20.5302 2.14215 20.9361 2.75096C21.7234 3.93199 22.625 5.66185 22.625 7.5C22.625 9.17016 22.211 10.7996 21.8173 11.9808C21.6182 12.5781 21.4189 13.0763 21.2684 13.4275C21.193 13.6034 21.1295 13.7432 21.0839 13.841C21.0611 13.8899 21.0427 13.9283 21.0295 13.9556L21.0137 13.988L21.0089 13.9978L21.0073 14.001L21.0064 14.0027C21.0063 14.0029 21.0062 14.0031 20 13.5L21.0064 14.0027C20.7286 14.5584 20.0526 14.7841 19.4969 14.5062C18.9415 14.2285 18.7167 13.5524 18.9938 12.9969C18.9937 12.9971 18.9939 12.9967 18.9938 12.9969M19.2965 2.29453C19.2966 2.29437 19.2967 2.29434 19.2965 2.29453V2.29453Z"
      fill="#252525" />
    <path fill-rule="evenodd" clip-rule="evenodd"
      d="M1.2045 17.2045L2 18L1.2045 18.7955C0.765165 18.3562 0.765165 17.6438 1.2045 17.2045ZM13.4969 17.5062L13.4946 17.5051L13.4756 17.4958C13.4574 17.487 13.4285 17.4732 13.3895 17.455C13.3115 17.4186 13.1934 17.3649 13.0412 17.2997C12.7362 17.1689 12.2969 16.9932 11.7692 16.8173C10.7004 16.461 9.32984 16.125 8 16.125C6.83815 16.125 5.56801 16.7234 4.49904 17.4361C4.21013 17.6287 3.94747 17.8218 3.71911 18C3.94747 18.1782 4.21013 18.3713 4.49904 18.5639C5.56801 19.2766 6.83815 19.875 8 19.875C9.32984 19.875 10.7004 19.539 11.7692 19.1827C12.2969 19.0068 12.7362 18.8311 13.0412 18.7003C13.1934 18.6351 13.3115 18.5814 13.3895 18.545C13.4285 18.5268 13.4574 18.513 13.4756 18.5042L13.4946 18.4949L13.4969 18.4938C13.4968 18.4938 13.497 18.4937 13.4969 18.4938C13.4967 18.4939 13.4969 18.4938 14 19.5L14.5031 20.5062C15.0588 20.2284 15.2841 19.5526 15.0062 18.9969C14.7284 18.4413 14.0525 18.2162 13.4969 18.4938M14 19.5C14.5031 20.5062 14.5033 20.5061 14.5031 20.5062L14.501 20.5073L14.4978 20.5089L14.488 20.5137L14.4556 20.5295C14.4283 20.5427 14.3899 20.5611 14.341 20.5839C14.2432 20.6295 14.1034 20.693 13.9275 20.7684C13.5763 20.9189 13.0781 21.1182 12.4808 21.3173C11.2996 21.711 9.67016 22.125 8 22.125C6.16185 22.125 4.43199 21.2234 3.25096 20.4361C2.64215 20.0302 2.13703 19.626 1.78348 19.3229C1.60613 19.1709 1.46537 19.043 1.36716 18.9513C1.31801 18.9055 1.2794 18.8686 1.25207 18.8421L1.21959 18.8104L1.20984 18.8008L1.20662 18.7976L1.2045 18.7955C1.20429 18.7953 1.2045 18.7955 2 18C1.2045 17.2045 1.20429 17.2047 1.2045 17.2045L1.20662 17.2024L1.20984 17.1992L1.21959 17.1896L1.25207 17.1579C1.2794 17.1314 1.31801 17.0945 1.36716 17.0487C1.46537 16.957 1.60613 16.8291 1.78348 16.6771C2.13703 16.374 2.64215 15.9698 3.25096 15.5639C4.43199 14.7766 6.16185 13.875 8 13.875C9.67016 13.875 11.2996 14.289 12.4808 14.6827C13.0781 14.8818 13.5763 15.0811 13.9275 15.2316C14.1034 15.307 14.2432 15.3705 14.341 15.4161C14.3899 15.4389 14.4283 15.4573 14.4556 15.4705L14.488 15.4863L14.4978 15.4911L14.501 15.4927L14.5027 15.4936C14.5029 15.4937 14.5031 15.4938 14 16.5L14.5027 15.4936C15.0584 15.7714 15.2841 16.4474 15.0062 17.0031C14.7285 17.5585 14.0524 17.7833 13.4969 17.5062C13.4971 17.5063 13.4967 17.5061 13.4969 17.5062M2.79453 17.2035C2.79437 17.2034 2.79434 17.2033 2.79453 17.2035V17.2035Z"
      fill="#252525" />
    <path fill-rule="evenodd" clip-rule="evenodd"
      d="M19.2955 35.2955L18.5 34.5L17.7045 35.2955C18.1438 35.7348 18.8562 35.7348 19.2955 35.2955ZM18.9938 23.0031L18.9949 23.0054L19.0042 23.0244C19.013 23.0426 19.0268 23.0715 19.045 23.1105C19.0814 23.1885 19.1351 23.3066 19.2003 23.4588C19.3311 23.7638 19.5068 24.2031 19.6827 24.7308C20.039 25.7996 20.375 27.1702 20.375 28.5C20.375 29.6618 19.7766 30.932 19.0639 32.001C18.8713 32.2899 18.6782 32.5525 18.5 32.7809C18.3218 32.5525 18.1287 32.2899 17.9361 32.001C17.2234 30.932 16.625 29.6618 16.625 28.5C16.625 27.1702 16.961 25.7996 17.3173 24.7308C17.4932 24.2031 17.6689 23.7638 17.7997 23.4588C17.8649 23.3066 17.9186 23.1885 17.955 23.1105C17.9732 23.0715 17.987 23.0426 17.9958 23.0244L18.0051 23.0054L18.0062 23.0031C18.0062 23.0032 18.0063 23.003 18.0062 23.0031C18.0061 23.0033 18.0062 23.0031 17 22.5L15.9938 21.9969C16.2716 21.4412 16.9474 21.2159 17.5031 21.4938C18.0587 21.7716 18.2838 22.4475 18.0062 23.0031M17 22.5C15.9938 21.9969 15.9939 21.9967 15.9938 21.9969L15.9927 21.999L15.9911 22.0022L15.9863 22.012L15.9705 22.0444C15.9573 22.0717 15.9389 22.1101 15.9161 22.159C15.8705 22.2568 15.807 22.3966 15.7316 22.5725C15.5811 22.9237 15.3818 23.4219 15.1827 24.0192C14.789 25.2004 14.375 26.8298 14.375 28.5C14.375 30.3382 15.2766 32.068 16.0639 33.249C16.4698 33.8579 16.874 34.363 17.1771 34.7165C17.3291 34.8939 17.457 35.0346 17.5487 35.1328C17.5945 35.182 17.6314 35.2206 17.6579 35.2479L17.6896 35.2804L17.6992 35.2902L17.7024 35.2934L17.7045 35.2955C17.7047 35.2957 17.7045 35.2955 18.5 34.5C19.2955 35.2955 19.2953 35.2957 19.2955 35.2955L19.2976 35.2934L19.3008 35.2902L19.3104 35.2804L19.3421 35.2479C19.3686 35.2206 19.4055 35.182 19.4513 35.1328C19.543 35.0346 19.6709 34.8939 19.8229 34.7165C20.126 34.363 20.5302 33.8579 20.9361 33.249C21.7234 32.068 22.625 30.3382 22.625 28.5C22.625 26.8298 22.211 25.2004 21.8173 24.0192C21.6182 23.4219 21.4189 22.9237 21.2684 22.5725C21.193 22.3966 21.1295 22.2568 21.0839 22.159C21.0611 22.1101 21.0427 22.0717 21.0295 22.0444L21.0137 22.012L21.0089 22.0022L21.0073 21.999L21.0064 21.9973C21.0063 21.9971 21.0062 21.9969 20 22.5L21.0064 21.9973C20.7286 21.4416 20.0526 21.2159 19.4969 21.4938C18.9415 21.7715 18.7167 22.4476 18.9938 23.0031C18.9937 23.0029 18.9939 23.0033 18.9938 23.0031M19.2965 33.7055C19.2966 33.7056 19.2967 33.7057 19.2965 33.7055V33.7055Z"
      fill="#252525" />
    <path fill-rule="evenodd" clip-rule="evenodd"
      d="M35.7955 17.2045L35 18L35.7955 18.7955C36.2348 18.3562 36.2348 17.6438 35.7955 17.2045ZM23.5031 17.5062L23.5054 17.5051L23.5244 17.4958C23.5426 17.487 23.5715 17.4732 23.6105 17.455C23.6885 17.4186 23.8066 17.3649 23.9588 17.2997C24.2638 17.1689 24.7031 16.9932 25.2308 16.8173C26.2996 16.461 27.6702 16.125 29 16.125C30.1618 16.125 31.432 16.7234 32.501 17.4361C32.7899 17.6287 33.0525 17.8218 33.2809 18C33.0525 18.1782 32.7899 18.3713 32.501 18.5639C31.432 19.2766 30.1618 19.875 29 19.875C27.6702 19.875 26.2996 19.539 25.2308 19.1827C24.7031 19.0068 24.2638 18.8311 23.9588 18.7003C23.8066 18.6351 23.6885 18.5814 23.6105 18.545C23.5715 18.5268 23.5426 18.513 23.5244 18.5042L23.5054 18.4949L23.5031 18.4938C23.5032 18.4938 23.503 18.4937 23.5031 18.4938C23.5033 18.4939 23.5031 18.4938 23 19.5L22.4969 20.5062C21.9412 20.2284 21.7159 19.5526 21.9938 18.9969C22.2716 18.4413 22.9475 18.2162 23.5031 18.4938M23 19.5C22.4969 20.5062 22.4967 20.5061 22.4969 20.5062L22.499 20.5073L22.5022 20.5089L22.512 20.5137L22.5444 20.5295C22.5717 20.5427 22.6101 20.5611 22.659 20.5839C22.7568 20.6295 22.8966 20.693 23.0725 20.7684C23.4237 20.9189 23.9219 21.1182 24.5192 21.3173C25.7004 21.711 27.3298 22.125 29 22.125C30.8382 22.125 32.568 21.2234 33.749 20.4361C34.3579 20.0302 34.863 19.626 35.2165 19.3229C35.3939 19.1709 35.5346 19.043 35.6328 18.9513C35.682 18.9055 35.7206 18.8686 35.7479 18.8421L35.7804 18.8104L35.7902 18.8008L35.7934 18.7976L35.7955 18.7955C35.7957 18.7953 35.7955 18.7955 35 18C35.7955 17.2045 35.7957 17.2047 35.7955 17.2045L35.7934 17.2024L35.7902 17.1992L35.7804 17.1896L35.7479 17.1579C35.7206 17.1314 35.682 17.0945 35.6328 17.0487C35.5346 16.957 35.3939 16.8291 35.2165 16.6771C34.863 16.374 34.3579 15.9698 33.749 15.5639C32.568 14.7766 30.8382 13.875 29 13.875C27.3298 13.875 25.7004 14.289 24.5192 14.6827C23.9219 14.8818 23.4237 15.0811 23.0725 15.2316C22.8966 15.307 22.7568 15.3705 22.659 15.4161C22.6101 15.4389 22.5717 15.4573 22.5444 15.4705L22.512 15.4863L22.5022 15.4911L22.499 15.4927L22.4973 15.4936C22.4971 15.4937 22.4969 15.4938 23 16.5L22.4973 15.4936C21.9416 15.7714 21.7159 16.4474 21.9938 17.0031C22.2715 17.5585 22.9476 17.7833 23.5031 17.5062C23.5029 17.5063 23.5033 17.5061 23.5031 17.5062M34.2055 17.2035C34.2056 17.2034 34.2057 17.2033 34.2055 17.2035V17.2035Z"
      fill="#252525" />
    <path fill-rule="evenodd" clip-rule="evenodd"
      d="M6.83292 5.20778V6.33278L5.70792 6.33278C5.70792 5.71146 6.2116 5.20778 6.83292 5.20778ZM15.3116 14.1132L15.3108 14.1108L15.3039 14.0907C15.2972 14.0717 15.2866 14.0414 15.2719 14.001C15.2424 13.9201 15.197 13.7987 15.1354 13.6449C15.0122 13.3368 14.8259 12.9019 14.5771 12.4044C14.0733 11.3966 13.3417 10.1899 12.4014 9.2496C11.5798 8.42805 10.2586 7.95306 8.99877 7.7011C8.65829 7.633 8.33601 7.58384 8.04851 7.54838C8.08397 7.83587 8.13314 8.15815 8.20123 8.49864C8.45319 9.75843 8.92818 11.0797 9.74973 11.9012C10.6901 12.8416 11.8968 13.5731 12.9045 14.077C13.402 14.3257 13.8369 14.5121 14.145 14.6353C14.2988 14.6968 14.4202 14.7423 14.5011 14.7717C14.5416 14.7864 14.5718 14.7971 14.5909 14.8037L14.6109 14.8106L14.6133 14.8115C14.6132 14.8114 14.6134 14.8115 14.6133 14.8115C14.6131 14.8114 14.6133 14.8115 14.2575 15.8787L13.9018 16.946C14.4912 17.1425 15.1283 16.8239 15.3248 16.2345C15.5212 15.6452 15.2025 15.0081 14.6133 14.8115M14.2575 15.8787C13.9018 16.946 13.902 16.9461 13.9018 16.946L13.8995 16.9452L13.8961 16.9441L13.8858 16.9406L13.8517 16.9289C13.8231 16.9189 13.7829 16.9047 13.7322 16.8863C13.6308 16.8494 13.4871 16.7955 13.3094 16.7244C12.9546 16.5825 12.4614 16.371 11.8983 16.0895C10.7847 15.5327 9.33972 14.6732 8.15874 13.4922C6.85897 12.1925 6.2733 10.3318 5.99493 8.9399C5.85143 8.2224 5.78009 7.5794 5.74438 7.11512C5.72646 6.88222 5.71736 6.69226 5.71273 6.558C5.71041 6.49081 5.70921 6.43741 5.70859 6.39939L5.70802 6.35402L5.70793 6.34031L5.70792 6.33577L5.70792 6.33278C5.70792 6.33247 5.70792 6.33278 6.83292 6.33278C6.83292 5.20778 6.83261 5.20778 6.83292 5.20778L6.8359 5.20778L6.84045 5.2078L6.85415 5.20788L6.89952 5.20845C6.93755 5.20907 6.99094 5.21028 7.05813 5.21259C7.1924 5.21722 7.38235 5.22632 7.61526 5.24424C8.07953 5.27995 8.72254 5.35129 9.44003 5.49479C10.8319 5.77316 12.6926 6.35884 13.9924 7.65861C15.1734 8.83959 16.0328 10.2845 16.5896 11.3981C16.8712 11.9613 17.0826 12.4545 17.2245 12.8093C17.2956 12.9869 17.3495 13.1307 17.3864 13.2321C17.4048 13.2828 17.419 13.323 17.429 13.3516L17.4407 13.3857L17.4442 13.396L17.4454 13.3994L17.446 13.4012C17.4461 13.4014 17.4461 13.4016 16.3789 13.7574L17.446 13.4012C17.6425 13.9906 17.324 14.6282 16.7346 14.8247C16.1455 15.021 15.5085 14.7019 15.3116 14.1132C15.3117 14.1134 15.3115 14.113 15.3116 14.1132M7.95792 6.33142C7.95792 6.33119 7.95791 6.33114 7.95792 6.33142V6.33142Z"
      fill="#252525" />
    <path fill-rule="evenodd" clip-rule="evenodd"
      d="M5.70778 29.6676H6.83278L6.83278 30.7926C6.21146 30.7926 5.70778 30.2889 5.70778 29.6676ZM14.6132 21.1889L14.6108 21.1897L14.5907 21.1966C14.5717 21.2032 14.5414 21.2139 14.501 21.2286C14.4201 21.258 14.2987 21.3035 14.1449 21.365C13.8368 21.4883 13.4019 21.6746 12.9044 21.9234C11.8966 22.4272 10.6899 23.1588 9.7496 24.0991C8.92805 24.9207 8.45306 26.2419 8.2011 27.5017C8.133 27.8422 8.08384 28.1645 8.04838 28.452C8.33587 28.4165 8.65815 28.3674 8.99864 28.2993C10.2584 28.0473 11.5797 27.5723 12.4012 26.7508C13.3416 25.8104 14.0731 24.6037 14.577 23.596C14.8257 23.0985 15.0121 22.6636 15.1353 22.3555C15.1968 22.2017 15.2423 22.0803 15.2717 21.9994C15.2864 21.9589 15.2971 21.9287 15.3037 21.9096L15.3106 21.8896L15.3115 21.8872C15.3114 21.8873 15.3115 21.8871 15.3115 21.8872C15.3114 21.8874 15.3115 21.8872 16.3787 22.243L17.446 22.5987C17.6425 22.0093 17.3239 21.3722 16.7345 21.1757C16.1452 20.9792 15.5081 21.298 15.3115 21.8872M16.3787 22.243C17.446 22.5987 17.4461 22.5985 17.446 22.5987L17.4452 22.601L17.4441 22.6044L17.4406 22.6147L17.4289 22.6488C17.4189 22.6774 17.4047 22.7176 17.3863 22.7683C17.3494 22.8697 17.2955 23.0134 17.2244 23.1911C17.0825 23.5459 16.871 24.0391 16.5895 24.6022C16.0327 25.7158 15.1732 27.1608 13.9922 28.3417C12.6925 29.6415 10.8318 30.2272 9.4399 30.5056C8.7224 30.6491 8.0794 30.7204 7.61512 30.7561C7.38222 30.774 7.19226 30.7831 7.058 30.7878C6.99081 30.7901 6.93741 30.7913 6.89939 30.7919L6.85402 30.7925L6.84031 30.7926L6.83577 30.7926L6.83278 30.7926C6.83247 30.7926 6.83278 30.7926 6.83278 29.6676C5.70778 29.6676 5.70778 29.6679 5.70778 29.6676L5.70778 29.6646L5.7078 29.66L5.70788 29.6463L5.70845 29.601C5.70907 29.5629 5.71028 29.5095 5.71259 29.4424C5.71722 29.3081 5.72632 29.1181 5.74424 28.8852C5.77995 28.421 5.85129 27.7779 5.99479 27.0605C6.27316 25.6686 6.85884 23.8079 8.15861 22.5081C9.33959 21.3271 10.7845 20.4677 11.8981 19.9109C12.4613 19.6293 12.9545 19.4179 13.3093 19.276C13.4869 19.2049 13.6307 19.1509 13.7321 19.1141C13.7828 19.0956 13.823 19.0814 13.8516 19.0715L13.8857 19.0598L13.896 19.0563L13.8994 19.0551L13.9012 19.0545C13.9014 19.0544 13.9016 19.0544 14.2574 20.1216L13.9012 19.0545C14.4906 18.858 15.1282 19.1764 15.3247 19.7659C15.521 20.3549 15.2019 20.992 14.6132 21.1889C14.6134 21.1888 14.613 21.189 14.6132 21.1889M6.83142 28.5426C6.83119 28.5426 6.83114 28.5426 6.83142 28.5426V28.5426Z"
      fill="#252525" />
    <path fill-rule="evenodd" clip-rule="evenodd"
      d="M31.2922 29.6676L30.1672 29.6676V30.7926C30.7885 30.7926 31.2922 30.2889 31.2922 29.6676ZM22.3868 21.1889L22.3892 21.1897L22.4093 21.1966C22.4283 21.2032 22.4586 21.2139 22.499 21.2286C22.5799 21.258 22.7013 21.3035 22.8551 21.365C23.1632 21.4883 23.5981 21.6746 24.0956 21.9234C25.1034 22.4272 26.3101 23.1588 27.2504 24.0991C28.072 24.9207 28.5469 26.2419 28.7989 27.5017C28.867 27.8422 28.9162 28.1645 28.9516 28.452C28.6641 28.4165 28.3418 28.3674 28.0014 28.2993C26.7416 28.0473 25.4203 27.5723 24.5988 26.7508C23.6584 25.8104 22.9269 24.6037 22.423 23.596C22.1743 23.0985 21.9879 22.6636 21.8647 22.3555C21.8032 22.2017 21.7577 22.0803 21.7283 21.9994C21.7136 21.9589 21.7029 21.9287 21.6963 21.9096L21.6894 21.8896L21.6885 21.8872C21.6886 21.8873 21.6885 21.8871 21.6885 21.8872C21.6886 21.8874 21.6885 21.8872 20.6213 22.243L19.554 22.5987C19.3575 22.0093 19.6761 21.3722 20.2655 21.1757C20.8548 20.9792 21.4919 21.298 21.6885 21.8872M20.6213 22.243C19.554 22.5987 19.5539 22.5985 19.554 22.5987L19.5548 22.601L19.5559 22.6044L19.5594 22.6147L19.5711 22.6488C19.5811 22.6774 19.5953 22.7176 19.6137 22.7683C19.6506 22.8697 19.7045 23.0134 19.7756 23.1911C19.9175 23.5459 20.129 24.0391 20.4105 24.6022C20.9673 25.7158 21.8268 27.1608 23.0078 28.3417C24.3075 29.6415 26.1682 30.2272 27.5601 30.5056C28.2776 30.6491 28.9206 30.7204 29.3849 30.7561C29.6178 30.774 29.8077 30.7831 29.942 30.7878C30.0092 30.7901 30.0626 30.7913 30.1006 30.7919L30.146 30.7925L30.1597 30.7926L30.1642 30.7926L30.1672 30.7926C30.1675 30.7926 30.1672 30.7926 30.1672 29.6676C31.2922 29.6676 31.2922 29.6679 31.2922 29.6676L31.2922 29.6646L31.2922 29.66L31.2921 29.6463L31.2915 29.601C31.2909 29.5629 31.2897 29.5095 31.2874 29.4424C31.2828 29.3081 31.2737 29.1181 31.2558 28.8852C31.22 28.421 31.1487 27.7779 31.0052 27.0605C30.7268 25.6686 30.1412 23.8079 28.8414 22.5081C27.6604 21.3271 26.2155 20.4677 25.1019 19.9109C24.5387 19.6293 24.0455 19.4179 23.6907 19.276C23.5131 19.2049 23.3693 19.1509 23.2679 19.1141C23.2172 19.0956 23.177 19.0814 23.1484 19.0715L23.1143 19.0598L23.104 19.0563L23.1006 19.0551L23.0988 19.0545C23.0986 19.0544 23.0984 19.0544 22.7426 20.1216L23.0988 19.0545C22.5094 18.858 21.8718 19.1764 21.6753 19.7659C21.479 20.3549 21.7981 20.992 22.3868 21.1889C22.3866 21.1888 22.387 21.189 22.3868 21.1889M30.1686 28.5426C30.1688 28.5426 30.1689 28.5426 30.1686 28.5426V28.5426Z"
      fill="#252525" />
    <path fill-rule="evenodd" clip-rule="evenodd"
      d="M30.1671 5.20778V6.33278L31.2921 6.33278C31.2921 5.71146 30.7884 5.20778 30.1671 5.20778ZM21.6884 14.1132L21.6892 14.1108L21.6961 14.0907C21.7028 14.0717 21.7134 14.0414 21.7281 14.001C21.7576 13.9201 21.803 13.7987 21.8646 13.6449C21.9878 13.3368 22.1741 12.9019 22.4229 12.4044C22.9267 11.3966 23.6583 10.1899 24.5986 9.2496C25.4202 8.42805 26.7414 7.95306 28.0012 7.7011C28.3417 7.633 28.664 7.58384 28.9515 7.54838C28.916 7.83587 28.8669 8.15815 28.7988 8.49864C28.5468 9.75843 28.0718 11.0797 27.2503 11.9012C26.3099 12.8416 25.1032 13.5731 24.0955 14.077C23.598 14.3257 23.1631 14.5121 22.855 14.6353C22.7012 14.6968 22.5798 14.7423 22.4989 14.7717C22.4584 14.7864 22.4282 14.7971 22.4091 14.8037L22.3891 14.8106L22.3867 14.8115C22.3868 14.8114 22.3866 14.8115 22.3867 14.8115C22.3869 14.8114 22.3867 14.8115 22.7425 15.8787L23.0982 16.946C22.5088 17.1425 21.8717 16.8239 21.6752 16.2345C21.4788 15.6452 21.7975 15.0081 22.3867 14.8115M22.7425 15.8787C23.0982 16.946 23.098 16.9461 23.0982 16.946L23.1005 16.9452L23.1039 16.9441L23.1142 16.9406L23.1483 16.9289C23.1769 16.9189 23.2171 16.9047 23.2678 16.8863C23.3692 16.8494 23.5129 16.7955 23.6906 16.7244C24.0454 16.5825 24.5386 16.371 25.1017 16.0895C26.2153 15.5327 27.6603 14.6732 28.8413 13.4922C30.141 12.1925 30.7267 10.3318 31.0051 8.9399C31.1486 8.2224 31.2199 7.5794 31.2556 7.11512C31.2735 6.88222 31.2826 6.69226 31.2873 6.558C31.2896 6.49081 31.2908 6.43741 31.2914 6.39939L31.292 6.35402L31.2921 6.34031L31.2921 6.33577L31.2921 6.33278C31.2921 6.33247 31.2921 6.33278 30.1671 6.33278C30.1671 5.20778 30.1674 5.20778 30.1671 5.20778L30.1641 5.20778L30.1596 5.2078L30.1458 5.20788L30.1005 5.20845C30.0625 5.20907 30.0091 5.21028 29.9419 5.21259C29.8076 5.21722 29.6176 5.22632 29.3847 5.24424C28.9205 5.27995 28.2775 5.35129 27.56 5.49479C26.1681 5.77316 24.3074 6.35884 23.0076 7.65861C21.8266 8.83959 20.9672 10.2845 20.4104 11.3981C20.1288 11.9613 19.9174 12.4545 19.7755 12.8093C19.7044 12.9869 19.6505 13.1307 19.6136 13.2321C19.5952 13.2828 19.581 13.323 19.571 13.3516L19.5593 13.3857L19.5558 13.396L19.5546 13.3994L19.554 13.4012C19.5539 13.4014 19.5539 13.4016 20.6211 13.7574L19.554 13.4012C19.3575 13.9906 19.676 14.6282 20.2654 14.8247C20.8545 15.021 21.4915 14.7019 21.6884 14.1132C21.6883 14.1134 21.6885 14.113 21.6884 14.1132M29.0421 6.33142C29.0421 6.33119 29.0421 6.33114 29.0421 6.33142V6.33142Z"
      fill="#252525" />
  </g>
  <defs>
    <clipPath id="clip0_36_3649">
      <rect width="36" height="36" fill="white" transform="translate(0.5)" />
    </clipPath>
  </defs>
</svg>
  