<svg width="31" height="30" viewBox="0 0 31 30" fill="none" xmlns="http://www.w3.org/2000/svg">
  <path
    d="M11.4009 10.295L14.6478 3.7547C15.0646 2.9151 16.2688 2.9151 16.6856 3.7547L19.9325 10.295L27.1935 11.3502C28.1252 11.4856 28.4965 12.6242 27.822 13.2774L22.5689 18.3647L23.8086 25.5518C23.9678 26.4747 22.9934 27.1785 22.1599 26.7427L15.6667 23.3475L9.17352 26.7427C8.33994 27.1785 7.36555 26.4747 7.52476 25.5518L8.7645 18.3647L3.51138 13.2774C2.8369 12.6242 3.20821 11.4856 4.13984 11.3502L11.4009 10.295Z"
    fill="black" />
  <path fill-rule="evenodd" clip-rule="evenodd"
    d="M15.5596 4.09002C15.5351 4.10444 15.5094 4.12742 15.4875 4.17157L12.2406 10.7118C12.1038 10.9875 11.8403 11.1785 11.5357 11.2227L4.27467 12.278C4.10578 12.3025 4.05381 12.4976 4.16358 12.6039L9.41671 17.6912C9.63936 17.9069 9.74105 18.2186 9.68836 18.5241L8.44861 25.7111C8.44035 25.759 8.44754 25.7912 8.45803 25.8154C8.47011 25.8432 8.49249 25.8727 8.52578 25.8968C8.55906 25.9208 8.59544 25.9337 8.6284 25.9368C8.65757 25.9395 8.6935 25.9357 8.73912 25.9119L15.2323 22.5167C15.5044 22.3744 15.829 22.3744 16.1011 22.5167L22.5943 25.9119C22.6399 25.9357 22.6758 25.9395 22.705 25.9368C22.7379 25.9337 22.7743 25.9208 22.8076 25.8968C22.8409 25.8727 22.8633 25.8432 22.8754 25.8154C22.8858 25.7912 22.893 25.759 22.8848 25.7111L21.645 18.5241C21.5923 18.2186 21.694 17.9069 21.9167 17.6912L27.1698 12.6039C27.2796 12.4976 27.2276 12.3025 27.0587 12.278L19.7976 11.2227C19.4931 11.1785 19.2296 10.9875 19.0928 10.7118L15.8459 4.17157C15.8239 4.12742 15.7983 4.10444 15.7738 4.09002C15.746 4.07361 15.7089 4.0625 15.6667 4.0625C15.6245 4.0625 15.5874 4.07361 15.5596 4.09002ZM13.8081 3.33782C14.5695 1.80406 16.7639 1.80406 17.5253 3.33782L20.5537 9.43789L27.3284 10.4225C29.0227 10.6687 29.7134 12.7508 28.4742 13.9509L23.5769 18.6935L24.7325 25.3924C25.0258 27.0927 23.2362 28.3634 21.7255 27.5734L15.6667 24.4054L9.60793 27.5734C8.09721 28.3634 6.3076 27.0927 6.6009 25.3924L7.75644 18.6935L2.85918 13.9509C1.62001 12.7508 2.31065 10.6687 4.00501 10.4225L10.7797 9.43789L13.8081 3.33782Z"
    fill="black" />
</svg>
  