<svg width="30" height="30" viewBox="0 0 30 30" fill="none" xmlns="http://www.w3.org/2000/svg">
  <path fill-rule="evenodd" clip-rule="evenodd"
    d="M11.9226 4.51888C13.8141 3.37253 16.1859 3.37253 18.0774 4.51888L24.3274 8.30676C26.103 9.38287 27.1875 11.3083 27.1875 13.3845V21.25C27.1875 24.5292 24.5292 27.1875 21.25 27.1875H8.75C5.47081 27.1875 2.8125 24.5292 2.8125 21.25V13.3845C2.8125 11.3083 3.897 9.38287 5.67258 8.30676L11.9226 4.51888ZM17.1056 6.12238C15.8114 5.33803 14.1886 5.33803 12.8944 6.12238L6.6444 9.91026C5.42953 10.6465 4.6875 11.9639 4.6875 13.3845V21.25C4.6875 23.4937 6.50634 25.3125 8.75 25.3125H10.3125V21.25C10.3125 18.6612 12.4112 16.5625 15 16.5625C17.5888 16.5625 19.6875 18.6612 19.6875 21.25V25.3125H21.25C23.4937 25.3125 25.3125 23.4937 25.3125 21.25V13.3845C25.3125 11.9639 24.5705 10.6465 23.3556 9.91026L17.1056 6.12238ZM17.8125 25.3125V21.25C17.8125 19.6967 16.5533 18.4375 15 18.4375C13.4467 18.4375 12.1875 19.6967 12.1875 21.25V25.3125H17.8125Z"
    fill="black" />
  <path
    d="M12.8944 6.12238C14.1886 5.33803 15.8114 5.33803 17.1056 6.12238L23.3556 9.91026C24.5705 10.6465 25.3125 11.9639 25.3125 13.3845V21.25C25.3125 23.4937 23.4937 25.3125 21.25 25.3125H19.6875V21.25C19.6875 18.6612 17.5888 16.5625 15 16.5625C12.4112 16.5625 10.3125 18.6612 10.3125 21.25V25.3125H8.75C6.50634 25.3125 4.6875 23.4937 4.6875 21.25V13.3845C4.6875 11.9639 5.42953 10.6465 6.6444 9.91026L12.8944 6.12238Z"
    fill="black" />
</svg>
  