<svg width="30" height="30" viewBox="0 0 30 30" fill="none" xmlns="http://www.w3.org/2000/svg">
  <path fill-rule="evenodd" clip-rule="evenodd"
    d="M11.9226 4.51894C13.8141 3.37259 16.1859 3.37259 18.0774 4.51894L24.3274 8.30682C26.103 9.38293 27.1875 11.3083 27.1875 13.3846V21.2501C27.1875 24.5293 24.5292 27.1876 21.25 27.1876H8.75C5.47081 27.1876 2.8125 24.5293 2.8125 21.2501V13.3846C2.8125 11.3083 3.897 9.38293 5.67258 8.30682L11.9226 4.51894ZM17.1056 6.12244C15.8114 5.33809 14.1886 5.33809 12.8944 6.12244L6.6444 9.91032C5.42953 10.6466 4.6875 11.964 4.6875 13.3846V21.2501C4.6875 23.4937 6.50634 25.3126 8.75 25.3126H10.3125V21.2501C10.3125 18.6612 12.4112 16.5626 15 16.5626C17.5888 16.5626 19.6875 18.6612 19.6875 21.2501V25.3126H21.25C23.4937 25.3126 25.3125 23.4937 25.3125 21.2501V13.3846C25.3125 11.964 24.5705 10.6466 23.3556 9.91032L17.1056 6.12244ZM17.8125 25.3126V21.2501C17.8125 19.6968 16.5533 18.4376 15 18.4376C13.4467 18.4376 12.1875 19.6968 12.1875 21.2501V25.3126H17.8125Z"
    fill="black" />
</svg>
  