<svg width="30" height="30" viewBox="0 0 30 30" fill="none" xmlns="http://www.w3.org/2000/svg">
  <path fill-rule="evenodd" clip-rule="evenodd"
    d="M14.0753 10.3708C14.5237 10.5367 14.7755 11.0135 14.6595 11.4774C14.5332 11.9828 14.4541 12.9006 14.4916 13.9409C14.5289 14.9757 14.678 16.0252 14.948 16.8014C15.0833 17.1905 15.2312 17.4584 15.3682 17.6198C15.4963 17.7708 15.5741 17.7851 15.6038 17.7882C15.6463 17.7925 15.8087 17.7918 16.1297 17.5745C16.4525 17.356 16.8712 16.96 17.385 16.2995C17.5827 16.0453 17.897 15.9104 18.2174 15.9421C18.5378 15.9738 18.8195 16.1678 18.9635 16.4558C20.5491 19.6269 21.1039 22.2847 20.3743 24.2348C19.59 26.3312 17.5242 27.1875 15 27.1875C13.5735 27.1875 12.1046 27.0059 10.971 26.3041C9.7499 25.5481 9.0625 24.2837 9.0625 22.5C9.0625 18.4972 10.8458 14.9456 12.5947 11.4625C12.7006 11.2517 12.8063 11.0411 12.9115 10.8308C13.1253 10.4031 13.6268 10.2049 14.0753 10.3708ZM12.7388 15.471C11.6862 17.8114 10.9375 20.069 10.9375 22.5C10.9375 23.7349 11.3694 24.3455 11.958 24.7099C12.6339 25.1284 13.665 25.3125 15 25.3125C17.1742 25.3125 18.2334 24.6064 18.6182 23.5778C18.9943 22.5725 18.8789 20.9415 17.8735 18.563C17.6401 18.7842 17.4094 18.9725 17.1808 19.1272C16.6327 19.4983 16.0334 19.7173 15.4118 19.6533C14.7775 19.588 14.2889 19.2459 13.9385 18.8329C13.5969 18.4303 13.3542 17.9267 13.177 17.4174C12.9708 16.8245 12.8292 16.1523 12.7388 15.471Z"
    fill="black" />
  <path fill-rule="evenodd" clip-rule="evenodd"
    d="M15.5078 2.96191L15 3.75L14.4922 2.96191C14.8014 2.7627 15.1986 2.7627 15.5078 2.96191ZM15 4.88171C14.7433 5.06012 14.4009 5.30401 13.999 5.60458C13.0818 6.2905 11.8627 7.26568 10.6475 8.42618C9.42881 9.58996 8.23646 10.9189 7.35414 12.3097C6.46726 13.7077 5.9375 15.099 5.9375 16.4062C5.9375 19.327 6.8005 21.523 8.29074 22.99C9.78297 24.4589 12.0217 25.3125 15 25.3125C17.9783 25.3125 20.217 24.4589 21.7093 22.99C23.1995 21.523 24.0625 19.327 24.0625 16.4062C24.0625 15.099 23.5327 13.7077 22.6459 12.3097C21.7635 10.9189 20.5712 9.58996 19.3525 8.42618C18.1373 7.26568 16.9182 6.2905 16.001 5.60458C15.5991 5.30401 15.2567 5.06012 15 4.88171ZM14.4922 2.96191C14.4925 2.96176 14.4922 2.96191 15 3.75C15.5078 2.96191 15.5075 2.96176 15.5078 2.96191L15.5109 2.96397L15.5178 2.96838L15.542 2.98419C15.5628 2.9978 15.5928 3.01756 15.6314 3.04323C15.7087 3.09458 15.8203 3.16967 15.9614 3.26687C16.2436 3.46121 16.6443 3.74428 17.124 4.10304C18.0818 4.81935 19.3627 5.84326 20.6475 7.07017C21.9288 8.2938 23.2365 9.74055 24.2291 11.3053C25.2173 12.8629 25.9375 14.6069 25.9375 16.4062C25.9375 19.6987 24.9564 22.4246 23.0246 24.3262C21.0948 26.2259 18.3335 27.1875 15 27.1875C11.6665 27.1875 8.90521 26.2259 6.97539 24.3262C5.04359 22.4246 4.0625 19.6987 4.0625 16.4062C4.0625 14.6069 4.78274 12.8629 5.77087 11.3053C6.76354 9.74055 8.07119 8.2938 9.35253 7.07017C10.6373 5.84326 11.9182 4.81935 12.876 4.10304C13.3557 3.74428 13.7564 3.46121 14.0386 3.26687C14.1797 3.16967 14.2913 3.09458 14.3686 3.04323C14.4072 3.01756 14.4372 2.9978 14.458 2.98419L14.4822 2.96838L14.4891 2.96397L14.4922 2.96191Z"
    fill="black" />
</svg>
  