<svg width="37" height="36" viewBox="0 0 37 36" fill="none" xmlns="http://www.w3.org/2000/svg">
  <path fill-rule="evenodd" clip-rule="evenodd"
    d="M18.167 9.375C18.7883 9.375 19.292 9.87868 19.292 10.5V13.5C19.292 14.1213 18.7883 14.625 18.167 14.625C17.5457 14.625 17.042 14.1213 17.042 13.5V10.5C17.042 9.87868 17.5457 9.375 18.167 9.375Z"
    fill="#252525" />
  <path fill-rule="evenodd" clip-rule="evenodd"
    d="M18.9346 18.6619C19.3964 19.0775 19.4338 19.7888 19.0182 20.2506L19.0032 20.2673C18.5876 20.7291 17.8762 20.7666 17.4144 20.3509C16.9526 19.9353 16.9152 19.224 17.3308 18.7621L17.3458 18.7455C17.7614 18.2836 18.4728 18.2462 18.9346 18.6619Z"
    fill="#252525" />
  <path fill-rule="evenodd" clip-rule="evenodd"
    d="M7.66699 5.625C6.63146 5.625 5.79199 6.46447 5.79199 7.5V29.7929L8.88778 25.9231C9.67059 24.9446 10.8558 24.375 12.1089 24.375H28.667C29.7025 24.375 30.542 23.5355 30.542 22.5V7.5C30.542 6.46447 29.7025 5.625 28.667 5.625H7.66699ZM3.54199 7.5C3.54199 5.22183 5.38882 3.375 7.66699 3.375H28.667C30.9452 3.375 32.792 5.22183 32.792 7.5V22.5C32.792 24.7782 30.9452 26.625 28.667 26.625H12.1089C11.5393 26.625 11.0006 26.8839 10.6447 27.3287L7.14825 31.6993C5.95247 33.194 3.54199 32.3485 3.54199 30.4343V7.5Z"
    fill="#252525" />
</svg>
  