<svg width="24" height="24" viewBox="0 0 24 24" fill="none" xmlns="http://www.w3.org/2000/svg">
  <path fill-rule="evenodd" clip-rule="evenodd"
    d="M10.1625 2.26802C9.75819 2.17816 9.35755 2.43311 9.2677 2.83746L5.2677 20.8375C5.17784 21.2418 5.43279 21.6424 5.83714 21.7323C6.24149 21.8222 6.64212 21.5672 6.73198 21.1629L10.732 3.16286C10.8218 2.75851 10.5669 2.35788 10.1625 2.26802Z"
    fill="#252525" />
  <path fill-rule="evenodd" clip-rule="evenodd"
    d="M21.25 16C21.25 15.5858 20.9142 15.25 20.5 15.25H2.5C2.08579 15.25 1.75 15.5858 1.75 16C1.75 16.4142 2.08579 16.75 2.5 16.75H20.5C20.9142 16.75 21.25 16.4142 21.25 16Z"
    fill="#252525" />
  <path fill-rule="evenodd" clip-rule="evenodd"
    d="M22.75 7C22.75 6.58579 22.4142 6.25 22 6.25H4C3.58579 6.25 3.25 6.58579 3.25 7C3.25 7.41421 3.58579 7.75 4 7.75H22C22.4142 7.75 22.75 7.41421 22.75 7Z"
    fill="#252525" />
  <path fill-rule="evenodd" clip-rule="evenodd"
    d="M18.1625 2.26802C17.7582 2.17816 17.3576 2.43311 17.2677 2.83746L13.2677 20.8375C13.1778 21.2418 13.4328 21.6424 13.8371 21.7323C14.2415 21.8222 14.6421 21.5672 14.732 21.1629L18.732 3.16286C18.8218 2.75851 18.5669 2.35788 18.1625 2.26802Z"
    fill="#252525" />
</svg>
  