<svg width="41" height="40" viewBox="0 0 41 40" fill="none" xmlns="http://www.w3.org/2000/svg">
  <path fill-rule="evenodd" clip-rule="evenodd"
    d="M20.5 4.58301C11.9856 4.58301 5.08333 11.4853 5.08333 19.9997C5.08333 28.5141 11.9856 35.4163 20.5 35.4163C29.0144 35.4163 35.9167 28.5141 35.9167 19.9997C35.9167 11.4853 29.0144 4.58301 20.5 4.58301ZM2.58333 19.9997C2.58333 10.1046 10.6049 2.08301 20.5 2.08301C30.3951 2.08301 38.4167 10.1046 38.4167 19.9997C38.4167 29.8948 30.3951 37.9163 20.5 37.9163C10.6049 37.9163 2.58333 29.8948 2.58333 19.9997Z"
    fill="#252525" />
  <path fill-rule="evenodd" clip-rule="evenodd"
    d="M21.4107 2.4196C21.9605 2.0021 22.7447 2.10935 23.1622 2.65915L22.1667 3.41511C23.1622 2.65915 23.1625 2.65953 23.1628 2.65994L23.1635 2.66088L23.1652 2.66321L23.1701 2.66971L23.1852 2.68996C23.1976 2.70667 23.2146 2.7298 23.2359 2.75926C23.2785 2.81816 23.3382 2.90237 23.4127 3.01111C23.5617 3.22855 23.7697 3.54437 24.0169 3.95235C24.5112 4.76789 25.1636 5.95436 25.8143 7.46194C27.1148 10.4749 28.4167 14.7908 28.4167 19.9995C28.4167 25.2082 27.1148 29.524 25.8143 32.537C25.1636 34.0446 24.5112 35.2311 24.0169 36.0466C23.7697 36.4546 23.5617 36.7704 23.4127 36.9879C23.3382 37.0966 23.2785 37.1808 23.2359 37.2397C23.2146 37.2692 23.1976 37.2923 23.1852 37.309L23.1701 37.3293L23.1652 37.3358L23.1635 37.3381L23.1628 37.339C23.1625 37.3394 23.1622 37.3398 22.1667 36.5839L23.1622 37.3398C22.7447 37.8896 21.9605 37.9969 21.4107 37.5794C20.8614 37.1622 20.7538 36.379 21.1701 35.8293C21.1702 35.8291 21.1704 35.8289 21.1705 35.8288C21.1706 35.8287 21.1706 35.8286 21.1707 35.8285L21.1712 35.8279L21.1768 35.8203L21.2097 35.7752C21.2404 35.7328 21.2881 35.6658 21.3503 35.575C21.4748 35.3932 21.6574 35.1165 21.8789 34.751C22.3222 34.0194 22.9197 32.9348 23.519 31.5463C24.7185 28.7671 25.9167 24.7908 25.9167 19.9995C25.9167 15.2082 24.7185 11.2318 23.519 8.45264C22.9197 7.06413 22.3222 5.97951 21.8789 5.24798C21.6574 4.88243 21.4748 4.60571 21.3503 4.42401C21.2881 4.33318 21.2404 4.26616 21.2097 4.22373L21.1768 4.17864L21.1712 4.17107L21.1707 4.17043C20.7537 3.62066 20.8611 2.83695 21.4107 2.4196ZM21.1699 4.16943L21.1703 4.16994L21.1704 4.17013C21.1702 4.16977 21.17 4.16953 21.1699 4.16943Z"
    fill="#252525" />
  <path fill-rule="evenodd" clip-rule="evenodd"
    d="M18.8333 3.41535C17.8378 2.65939 17.8375 2.65977 17.8372 2.66018L17.8365 2.66111L17.8348 2.66345L17.8299 2.66995L17.8148 2.6902C17.8024 2.70691 17.7854 2.73004 17.7641 2.7595C17.7215 2.8184 17.6618 2.90261 17.5873 3.01135C17.4383 3.22879 17.2303 3.54461 16.983 3.95259C16.4888 4.76813 15.8364 5.9546 15.1857 7.46218C13.8852 10.4752 12.5833 14.791 12.5833 19.9997C12.5833 25.2084 13.8852 29.5243 15.1857 32.5373C15.8364 34.0448 16.4888 35.2313 16.983 36.0468C17.2303 36.4548 17.4383 36.7706 17.5873 36.9881C17.6617 37.0968 17.7215 37.181 17.7641 37.2399C17.7854 37.2694 17.8024 37.2925 17.8148 37.3092L17.8299 37.3295L17.8347 37.336L17.8365 37.3383L17.8372 37.3393C17.8375 37.3397 17.8378 37.34 18.8333 36.5841L17.8378 37.34C18.2553 37.8899 19.0395 37.9971 19.5893 37.5796C20.1389 37.1623 20.2462 36.3785 19.8293 35.8288L19.8288 35.8281L19.8232 35.8206L19.7903 35.7755C19.7596 35.733 19.7119 35.666 19.6497 35.5752C19.5252 35.3935 19.3426 35.1168 19.1211 34.7512C18.6778 34.0197 18.0803 32.9351 17.481 31.5466C16.2815 28.7674 15.0833 24.791 15.0833 19.9997C15.0833 15.2084 16.2815 11.2321 17.481 8.45288C18.0803 7.06437 18.6778 5.97975 19.1211 5.24822C19.3426 4.88267 19.5252 4.60595 19.6497 4.42425C19.7119 4.33342 19.7596 4.2664 19.7903 4.22397L19.8232 4.17888L19.8293 4.17067C19.8291 4.17097 19.8288 4.17131 18.8333 3.41535Z"
    fill="#252525" />
  <path fill-rule="evenodd" clip-rule="evenodd"
    d="M3.63313 25.833C3.63313 25.1427 4.19278 24.583 4.88313 24.583H36.1178C36.8081 24.583 37.3678 25.1427 37.3678 25.833C37.3678 26.5234 36.8081 27.083 36.1178 27.083H4.88313C4.19278 27.083 3.63313 26.5234 3.63313 25.833Z"
    fill="#252525" />
  <path fill-rule="evenodd" clip-rule="evenodd"
    d="M3.63313 14.167C3.63313 13.4766 4.19278 12.917 4.88313 12.917H36.1178C36.8081 12.917 37.3678 13.4766 37.3678 14.167C37.3678 14.8573 36.8081 15.417 36.1178 15.417H4.88313C4.19278 15.417 3.63313 14.8573 3.63313 14.167Z"
    fill="#252525" />
</svg>
  