<svg width="37" height="36" viewBox="0 0 37 36" fill="none" xmlns="http://www.w3.org/2000/svg">
  <g clip-path="url(#clip0_36_3646)">
    <path fill-rule="evenodd" clip-rule="evenodd"
      d="M18.8335 19.125C15.3127 19.125 12.4585 21.9792 12.4585 25.5V27C12.4585 27.6213 11.9548 28.125 11.3335 28.125C10.7122 28.125 10.2085 27.6213 10.2085 27V25.5C10.2085 20.7365 14.07 16.875 18.8335 16.875C23.597 16.875 27.4585 20.7365 27.4585 25.5V27C27.4585 27.6213 26.9548 28.125 26.3335 28.125C25.7122 28.125 25.2085 27.6213 25.2085 27V25.5C25.2085 21.9792 22.3543 19.125 18.8335 19.125Z"
      fill="#252525" />
    <path fill-rule="evenodd" clip-rule="evenodd"
      d="M6.8335 22.125C4.96954 22.125 3.4585 23.636 3.4585 25.5V27C3.4585 27.6213 2.95482 28.125 2.3335 28.125C1.71218 28.125 1.2085 27.6213 1.2085 27V25.5C1.2085 22.3934 3.72689 19.875 6.8335 19.875V22.125Z"
      fill="#252525" />
    <path fill-rule="evenodd" clip-rule="evenodd"
      d="M30.8335 22.125C32.6975 22.125 34.2085 23.636 34.2085 25.5V27C34.2085 27.6213 34.7122 28.125 35.3335 28.125C35.9548 28.125 36.4585 27.6213 36.4585 27V25.5C36.4585 22.3934 33.9401 19.875 30.8335 19.875V22.125Z"
      fill="#252525" />
    <path fill-rule="evenodd" clip-rule="evenodd"
      d="M18.8335 10.125C16.9695 10.125 15.4585 11.636 15.4585 13.5C15.4585 15.364 16.9695 16.875 18.8335 16.875C20.6975 16.875 22.2085 15.364 22.2085 13.5C22.2085 11.636 20.6975 10.125 18.8335 10.125ZM13.2085 13.5C13.2085 10.3934 15.7269 7.875 18.8335 7.875C21.9401 7.875 24.4585 10.3934 24.4585 13.5C24.4585 16.6066 21.9401 19.125 18.8335 19.125C15.7269 19.125 13.2085 16.6066 13.2085 13.5Z"
      fill="#252525" />
    <path fill-rule="evenodd" clip-rule="evenodd"
      d="M6.8335 16.125C5.79796 16.125 4.9585 16.9645 4.9585 18C4.9585 19.0355 5.79796 19.875 6.8335 19.875C7.86903 19.875 8.7085 19.0355 8.7085 18C8.7085 16.9645 7.86903 16.125 6.8335 16.125ZM2.7085 18C2.7085 15.7218 4.55532 13.875 6.8335 13.875C9.11167 13.875 10.9585 15.7218 10.9585 18C10.9585 20.2782 9.11167 22.125 6.8335 22.125C4.55532 22.125 2.7085 20.2782 2.7085 18Z"
      fill="#252525" />
    <path fill-rule="evenodd" clip-rule="evenodd"
      d="M30.8335 16.125C29.798 16.125 28.9585 16.9645 28.9585 18C28.9585 19.0355 29.798 19.875 30.8335 19.875C31.869 19.875 32.7085 19.0355 32.7085 18C32.7085 16.9645 31.869 16.125 30.8335 16.125ZM26.7085 18C26.7085 15.7218 28.5553 13.875 30.8335 13.875C33.1117 13.875 34.9585 15.7218 34.9585 18C34.9585 20.2782 33.1117 22.125 30.8335 22.125C28.5553 22.125 26.7085 20.2782 26.7085 18Z"
      fill="#252525" />
  </g>
  <defs>
    <clipPath id="clip0_36_3646">
      <rect width="36" height="36" fill="white" transform="translate(0.833496)" />
    </clipPath>
  </defs>
</svg>
  