<svg width="24" height="24" viewBox="0 0 24 24" fill="none" xmlns="http://www.w3.org/2000/svg">
  <path fill-rule="evenodd" clip-rule="evenodd"
    d="M16.4697 16.4697C16.7626 16.1768 17.2374 16.1768 17.5303 16.4697L21.5303 20.4697C21.8232 20.7626 21.8232 21.2374 21.5303 21.5303C21.2374 21.8232 20.7626 21.8232 20.4697 21.5303L16.4697 17.5303C16.1768 17.2374 16.1768 16.7626 16.4697 16.4697Z"
    fill="black" />
  <path fill-rule="evenodd" clip-rule="evenodd"
    d="M11 3.75C6.99594 3.75 3.75 6.99594 3.75 11C3.75 15.0041 6.99594 18.25 11 18.25C13.0057 18.25 14.82 17.4365 16.1333 16.1197C17.4421 14.8074 18.25 12.9988 18.25 11C18.25 6.99594 15.0041 3.75 11 3.75ZM2.25 11C2.25 6.16751 6.16751 2.25 11 2.25C15.8325 2.25 19.75 6.16751 19.75 11C19.75 13.4118 18.7732 15.597 17.1954 17.179C15.6121 18.7664 13.4202 19.75 11 19.75C6.16751 19.75 2.25 15.8325 2.25 11Z"
    fill="black" />
</svg>
  