<svg width="24" height="24" viewBox="0 0 24 24" fill="none" xmlns="http://www.w3.org/2000/svg">
  <path fill-rule="evenodd" clip-rule="evenodd"
    d="M12 6.75C9.10051 6.75 6.75 9.10051 6.75 12C6.75 14.8995 9.10051 17.25 12 17.25C14.8995 17.25 17.25 14.8995 17.25 12C17.25 9.10051 14.8995 6.75 12 6.75ZM5.25 12C5.25 8.27208 8.27208 5.25 12 5.25C15.7279 5.25 18.75 8.27208 18.75 12C18.75 15.7279 15.7279 18.75 12 18.75C8.27208 18.75 5.25 15.7279 5.25 12Z"
    fill="black" />
  <path fill-rule="evenodd" clip-rule="evenodd"
    d="M8.62507 6.1533C8.98381 5.94623 9.44249 6.06918 9.64956 6.42792L12.4331 11.2502H18C18.4142 11.2502 18.75 11.586 18.75 12.0002C18.75 12.4144 18.4142 12.7502 18 12.7502H12.4331L9.64956 17.5724C9.44249 17.9311 8.98381 18.0541 8.62507 17.847C8.26633 17.64 8.14338 17.1813 8.35045 16.8225L11.134 12.0002L8.35045 7.1778C8.14338 6.81906 8.26633 6.36038 8.62507 6.1533Z"
    fill="black" />
  <path fill-rule="evenodd" clip-rule="evenodd"
    d="M11.4934 4.26632C11.661 4.25549 11.8299 4.25 12 4.25C12.1701 4.25 12.339 4.25549 12.5066 4.26632C12.92 4.29303 13.2334 4.64978 13.2067 5.06313C13.18 5.47648 12.8232 5.78991 12.4099 5.7632C12.2745 5.75445 12.1378 5.75 12 5.75C11.8622 5.75 11.7255 5.75445 11.5901 5.7632C11.1768 5.78991 10.82 5.47648 10.7933 5.06313C10.7666 4.64978 11.08 4.29303 11.4934 4.26632ZM14.4243 5.38826C14.6078 5.0169 15.0576 4.8646 15.4289 5.04808C15.7334 5.19851 16.0265 5.3683 16.3065 5.55582C16.6507 5.78625 16.743 6.25208 16.5125 6.59628C16.2821 6.94048 15.8163 7.0327 15.4721 6.80227C15.2461 6.65098 15.0098 6.5141 14.7645 6.39289C14.3931 6.2094 14.2408 5.75962 14.4243 5.38826ZM9.57571 5.38826C9.75919 5.75962 9.60689 6.2094 9.23553 6.39289C8.99021 6.5141 8.7539 6.65098 8.52793 6.80227C8.18373 7.0327 7.7179 6.94048 7.48746 6.59628C7.25703 6.25208 7.34925 5.78625 7.69345 5.55582C7.97354 5.3683 8.26662 5.19851 8.57108 5.04808C8.94244 4.8646 9.39223 5.0169 9.57571 5.38826ZM17.4037 7.48746C17.7479 7.25703 18.2137 7.34925 18.4442 7.69345C18.6317 7.97354 18.8015 8.26662 18.9519 8.57108C19.1354 8.94244 18.9831 9.39223 18.6117 9.57571C18.2404 9.75919 17.7906 9.60689 17.6071 9.23553C17.4859 8.99021 17.349 8.7539 17.1977 8.52793C16.9673 8.18373 17.0595 7.7179 17.4037 7.48746ZM6.59628 7.48746C6.94048 7.7179 7.0327 8.18373 6.80227 8.52793C6.65098 8.7539 6.5141 8.99021 6.39289 9.23553C6.2094 9.60689 5.75962 9.75919 5.38826 9.57571C5.0169 9.39223 4.8646 8.94244 5.04808 8.57108C5.19851 8.26662 5.3683 7.97354 5.55582 7.69345C5.78625 7.34925 6.25208 7.25703 6.59628 7.48746ZM18.9369 10.7933C19.3502 10.7666 19.707 11.08 19.7337 11.4934C19.7445 11.661 19.75 11.8299 19.75 12C19.75 12.1701 19.7445 12.339 19.7337 12.5066C19.707 12.92 19.3502 13.2334 18.9369 13.2067C18.5235 13.18 18.2101 12.8232 18.2368 12.4099C18.2456 12.2745 18.25 12.1378 18.25 12C18.25 11.8622 18.2456 11.7255 18.2368 11.5901C18.2101 11.1768 18.5235 10.82 18.9369 10.7933ZM5.06313 10.7933C5.47648 10.82 5.78991 11.1768 5.7632 11.5901C5.75445 11.7255 5.75 11.8622 5.75 12C5.75 12.1378 5.75445 12.2745 5.7632 12.4099C5.78991 12.8232 5.47648 13.18 5.06313 13.2067C4.64978 13.2334 4.29303 12.92 4.26632 12.5066C4.25549 12.339 4.25 12.1701 4.25 12C4.25 11.8299 4.25549 11.661 4.26632 11.4934C4.29303 11.08 4.64978 10.7666 5.06313 10.7933ZM5.38826 14.4243C5.75962 14.2408 6.2094 14.3931 6.39289 14.7645C6.5141 15.0098 6.65098 15.2461 6.80227 15.4721C7.0327 15.8163 6.94048 16.2821 6.59628 16.5125C6.25208 16.743 5.78625 16.6507 5.55582 16.3065C5.3683 16.0265 5.19851 15.7334 5.04808 15.4289C4.8646 15.0576 5.0169 14.6078 5.38826 14.4243ZM18.6117 14.4243C18.9831 14.6078 19.1354 15.0576 18.9519 15.4289C18.8015 15.7334 18.6317 16.0265 18.4442 16.3065C18.2137 16.6507 17.7479 16.743 17.4037 16.5125C17.0595 16.2821 16.9673 15.8163 17.1977 15.4721C17.349 15.2461 17.4859 15.0098 17.6071 14.7645C17.7906 14.3931 18.2404 14.2408 18.6117 14.4243ZM16.5125 17.4037C16.743 17.7479 16.6507 18.2137 16.3065 18.4442C16.0265 18.6317 15.7334 18.8015 15.4289 18.9519C15.0576 19.1354 14.6078 18.9831 14.4243 18.6117C14.2408 18.2404 14.3931 17.7906 14.7645 17.6071C15.0098 17.4859 15.2461 17.349 15.4721 17.1977C15.8163 16.9673 16.2821 17.0595 16.5125 17.4037ZM7.48746 17.4037C7.7179 17.0595 8.18373 16.9673 8.52793 17.1977C8.7539 17.349 8.99021 17.4859 9.23553 17.6071C9.60689 17.7906 9.75919 18.2404 9.57571 18.6117C9.39223 18.9831 8.94244 19.1354 8.57108 18.9519C8.26662 18.8015 7.97354 18.6317 7.69345 18.4442C7.34925 18.2137 7.25703 17.7479 7.48746 17.4037ZM10.7933 18.9369C10.82 18.5235 11.1768 18.2101 11.5901 18.2368C11.7255 18.2456 11.8622 18.25 12 18.25C12.1378 18.25 12.2745 18.2456 12.4099 18.2368C12.8232 18.2101 13.18 18.5235 13.2067 18.9369C13.2334 19.3502 12.92 19.707 12.5066 19.7337C12.339 19.7445 12.1701 19.75 12 19.75C11.8299 19.75 11.661 19.7445 11.4934 19.7337C11.08 19.707 10.7666 19.3502 10.7933 18.9369Z"
    fill="black" />
  <path fill-rule="evenodd" clip-rule="evenodd"
    d="M12 2.75C6.89137 2.75 2.75 6.89137 2.75 12C2.75 17.1086 6.89137 21.25 12 21.25C17.1086 21.25 21.25 17.1086 21.25 12C21.25 6.89137 17.1086 2.75 12 2.75ZM1.25 12C1.25 6.06294 6.06294 1.25 12 1.25C17.9371 1.25 22.75 6.06294 22.75 12C22.75 17.9371 17.9371 22.75 12 22.75C6.06294 22.75 1.25 17.9371 1.25 12Z"
    fill="black" />
  <path fill-rule="evenodd" clip-rule="evenodd"
    d="M12 9.75C10.7574 9.75 9.75 10.7574 9.75 12C9.75 13.2426 10.7574 14.25 12 14.25C13.2426 14.25 14.25 13.2426 14.25 12C14.25 10.7574 13.2426 9.75 12 9.75ZM8.25 12C8.25 9.92893 9.92893 8.25 12 8.25C14.0711 8.25 15.75 9.92893 15.75 12C15.75 14.0711 14.0711 15.75 12 15.75C9.92893 15.75 8.25 14.0711 8.25 12Z"
    fill="black" />
</svg>
  