<svg width="26" height="26" viewBox="0 0 26 26" fill="none" xmlns="http://www.w3.org/2000/svg">
  <path fill-rule="evenodd" clip-rule="evenodd"
    d="M19.5 18.1458C18.1538 18.1458 17.0625 19.2371 17.0625 20.5833C17.0625 21.9295 18.1538 23.0208 19.5 23.0208C20.8462 23.0208 21.9375 21.9295 21.9375 20.5833C21.9375 19.2371 20.8462 18.1458 19.5 18.1458ZM15.4375 20.5833C15.4375 18.3397 17.2563 16.5208 19.5 16.5208C21.7437 16.5208 23.5625 18.3397 23.5625 20.5833C23.5625 22.827 21.7437 24.6458 19.5 24.6458C17.2563 24.6458 15.4375 22.827 15.4375 20.5833Z"
    fill="black" />
  <path fill-rule="evenodd" clip-rule="evenodd"
    d="M19.5 2.97919C18.1538 2.97919 17.0625 4.07049 17.0625 5.41669C17.0625 6.76288 18.1538 7.85419 19.5 7.85419C20.8462 7.85419 21.9375 6.76288 21.9375 5.41669C21.9375 4.07049 20.8462 2.97919 19.5 2.97919ZM15.4375 5.41669C15.4375 3.17303 17.2563 1.35419 19.5 1.35419C21.7437 1.35419 23.5625 3.17303 23.5625 5.41669C23.5625 7.66034 21.7437 9.47919 19.5 9.47919C17.2563 9.47919 15.4375 7.66034 15.4375 5.41669Z"
    fill="black" />
  <path fill-rule="evenodd" clip-rule="evenodd"
    d="M6.5 10.5625C5.15381 10.5625 4.0625 11.6538 4.0625 13C4.0625 14.3462 5.15381 15.4375 6.5 15.4375C7.84619 15.4375 8.9375 14.3462 8.9375 13C8.9375 11.6538 7.84619 10.5625 6.5 10.5625ZM2.4375 13C2.4375 10.7563 4.25634 8.9375 6.5 8.9375C8.74366 8.9375 10.5625 10.7563 10.5625 13C10.5625 15.2437 8.74366 17.0625 6.5 17.0625C4.25634 17.0625 2.4375 15.2437 2.4375 13Z"
    fill="black" />
  <path fill-rule="evenodd" clip-rule="evenodd"
    d="M8.80521 10.6696L16.3885 6.33624L17.1948 7.74714L9.61143 12.0805L8.80521 10.6696Z"
    fill="black" />
  <path fill-rule="evenodd" clip-rule="evenodd"
    d="M16.3885 19.6638L8.80521 15.3305L9.61143 13.9196L17.1948 18.2529L16.3885 19.6638Z"
    fill="black" />
</svg>
  