<svg width="24" height="24" viewBox="0 0 24 24" fill="none" xmlns="http://www.w3.org/2000/svg">
  <path fill-rule="evenodd" clip-rule="evenodd"
    d="M15 7.25C15.4142 7.25 15.75 7.58579 15.75 8C15.75 10.3891 16.2624 11.8973 17.195 12.8238C18.1286 13.7513 19.6382 14.25 22 14.25C22.4142 14.25 22.75 14.5858 22.75 15C22.75 15.4142 22.4142 15.75 22 15.75C19.6432 15.75 18.1322 16.2613 17.1967 17.1967C16.2613 18.1322 15.75 19.6432 15.75 22C15.75 22.4142 15.4142 22.75 15 22.75C14.5858 22.75 14.25 22.4142 14.25 22C14.25 19.6444 13.7356 18.1331 12.7981 17.1972C11.8604 16.261 10.3488 15.75 8 15.75C7.58579 15.75 7.25 15.4142 7.25 15C7.25 14.5858 7.58579 14.25 8 14.25C10.3538 14.25 11.864 13.7516 12.7999 12.8234C13.7345 11.8964 14.25 10.3878 14.25 8C14.25 7.58579 14.5858 7.25 15 7.25Z"
    fill="#252525" />
  <path fill-rule="evenodd" clip-rule="evenodd"
    d="M6.5 1.25C6.91421 1.25 7.25 1.58579 7.25 2C7.25 3.5053 7.57396 4.38855 8.09985 4.91101C8.62674 5.43446 9.51131 5.75 11 5.75C11.4142 5.75 11.75 6.08579 11.75 6.5C11.75 6.91421 11.4142 7.25 11 7.25C9.51632 7.25 8.63032 7.57286 8.10159 8.10159C7.57286 8.63032 7.25 9.51632 7.25 11C7.25 11.4142 6.91421 11.75 6.5 11.75C6.08579 11.75 5.75 11.4142 5.75 11C5.75 9.51756 5.42532 8.63122 4.89526 8.10202C4.36496 7.57258 3.47828 7.25 2 7.25C1.58579 7.25 1.25 6.91421 1.25 6.5C1.25 6.08579 1.58579 5.75 2 5.75C3.48328 5.75 4.36854 5.43473 4.897 4.91058C5.42421 4.38766 5.75 3.50405 5.75 2C5.75 1.58579 6.08579 1.25 6.5 1.25Z"
    fill="#252525" />
</svg>
  