<svg width="24" height="24" viewBox="0 0 24 24" fill="none" xmlns="http://www.w3.org/2000/svg">
<path d="M21.4096 11.5798L12.4096 2.57976C12.0496 2.21976 11.5496 1.99976 10.9996 1.99976H3.99963C2.89963 1.99976 1.99963 2.89976 1.99963 3.99976V10.9998C1.99963 11.5498 2.21963 12.0498 2.58963 12.4198L11.5896 21.4198C11.9496 21.7798 12.4496 21.9998 12.9996 21.9998C13.5496 21.9998 14.0496 21.7798 14.4096 21.4098L21.4096 14.4098C21.7796 14.0498 21.9996 13.5498 21.9996 12.9998C21.9996 12.4498 21.7696 11.9398 21.4096 11.5798ZM5.49963 6.99976C4.66963 6.99976 3.99963 6.32976 3.99963 5.49976C3.99963 4.66976 4.66963 3.99976 5.49963 3.99976C6.32963 3.99976 6.99963 4.66976 6.99963 5.49976C6.99963 6.32976 6.32963 6.99976 5.49963 6.99976Z" fill="#252525"/>
</svg>
