<svg width="14" height="14" viewBox="0 0 14 14" fill="none" xmlns="http://www.w3.org/2000/svg">
<path fill-rule="evenodd" clip-rule="evenodd" d="M5.60927 2.12418C6.22608 1.05146 7.77378 1.05146 8.39059 2.12418L13.0823 10.2837C13.6972 11.3531 12.9253 12.6875 11.6916 12.6875H2.30821C1.07458 12.6875 0.302619 11.3531 0.917549 10.2837L5.60927 2.12418ZM7.63205 2.56034C7.35168 2.07274 6.64818 2.07274 6.36781 2.56034L1.67609 10.7199C1.39658 11.206 1.74747 11.8125 2.30821 11.8125H11.6916C12.2524 11.8125 12.6033 11.206 12.3238 10.7198L7.63205 2.56034Z" fill="#FF4500"/>
<path fill-rule="evenodd" clip-rule="evenodd" d="M7 4.8125C7.24162 4.8125 7.4375 5.00838 7.4375 5.25V7.58333C7.4375 7.82496 7.24162 8.02083 7 8.02083C6.75838 8.02083 6.5625 7.82496 6.5625 7.58333V5.25C6.5625 5.00838 6.75838 4.8125 7 4.8125Z" fill="#FF4500"/>
<path fill-rule="evenodd" clip-rule="evenodd" d="M7.29851 9.59083C7.47811 9.75247 7.49267 10.0291 7.33103 10.2087L7.32519 10.2152C7.16356 10.3948 6.88693 10.4093 6.70733 10.2477C6.52773 10.0861 6.51317 9.80943 6.67481 9.62983L6.68065 9.62335C6.84228 9.44375 7.11891 9.42919 7.29851 9.59083Z" fill="#FF4500"/>
</svg>
