<svg width="24" height="24" viewBox="0 0 24 24" fill="none" xmlns="http://www.w3.org/2000/svg">
  <path fill-rule="evenodd" clip-rule="evenodd"
    d="M20.6161 8.94454C21.6901 7.8706 21.6901 6.1294 20.6161 5.05546L19.2019 3.64124C18.128 2.5673 16.3868 2.5673 15.3128 3.64124L4.21717 14.7369C3.76057 15.1935 3.47921 15.7962 3.42238 16.4394L3.1803 19.1799C3.08445 20.2649 3.99248 21.1729 5.0775 21.0771L7.81792 20.835C8.46115 20.7782 9.06387 20.4968 9.52047 20.0402L20.6161 8.94454ZM19.5555 6.11612C20.0436 6.60427 20.0436 7.39573 19.5555 7.88388L18.6058 8.83354L15.4238 5.65156L16.3735 4.7019C16.8616 4.21375 17.6531 4.21375 18.1413 4.7019L19.5555 6.11612ZM14.3632 6.71222L17.5451 9.8942L8.45981 18.9795C8.25227 19.1871 7.9783 19.315 7.68593 19.3408L4.94551 19.5829C4.7905 19.5966 4.66079 19.4669 4.67448 19.3119L4.91657 16.5714C4.94239 16.2791 5.07029 16.0051 5.27783 15.7976L14.3632 6.71222Z"
    fill="black" />
</svg>
  