<svg width="24" height="25" viewBox="0 0 24 25" fill="none" xmlns="http://www.w3.org/2000/svg">
<path fill-rule="evenodd" clip-rule="evenodd" d="M12 1.75C6.06294 1.75 1.25 6.56294 1.25 12.5C1.25 18.4371 6.06294 23.25 12 23.25C17.9371 23.25 22.75 18.4371 22.75 12.5C22.75 6.56294 17.9371 1.75 12 1.75ZM9.70164 9.14124C9.40875 8.84835 8.93388 8.84835 8.64098 9.14124C8.34809 9.43414 8.34809 9.90901 8.64098 10.2019L10.9391 12.5L8.64098 14.7981C8.34809 15.091 8.34809 15.5659 8.64098 15.8588C8.93388 16.1517 9.40875 16.1517 9.70164 15.8588L11.9997 13.5607L14.2978 15.8588C14.5907 16.1517 15.0656 16.1517 15.3585 15.8588C15.6514 15.5659 15.6514 15.091 15.3585 14.7981L13.0604 12.5L15.3585 10.2019C15.6514 9.90901 15.6514 9.43414 15.3585 9.14124C15.0656 8.84835 14.5907 8.84835 14.2978 9.14124L11.9997 11.4393L9.70164 9.14124Z" fill="#FF4500"/>
</svg>
